<svg width="86" height="28" viewBox="0 0 86 28" fill="none" xmlns="http://www.w3.org/2000/svg">
<path d="M2.15588 15.4063C2.01272 15.471 1.87487 15.5519 1.75292 15.6598C1.63096 15.7676 1.51962 15.8809 1.42418 16.0103C1.32874 16.1343 1.26511 16.2799 1.22269 16.4363C1.18028 16.5927 1.15907 16.7599 1.15907 16.9271V24.3582H1V2H1.15376V8.8919C1.15376 9.05908 1.17497 9.22625 1.21739 9.38264C1.25981 9.53903 1.32874 9.69003 1.41888 9.82485C1.51432 9.95967 1.62036 10.0837 1.74761 10.1862C1.87487 10.294 2.00742 10.3749 2.15058 10.4396C2.193 10.4612 2.24072 10.4828 2.29374 10.5043C2.34676 10.5259 2.39979 10.5421 2.44751 10.5529C2.50053 10.5636 2.55355 10.569 2.60127 10.569C2.65429 10.569 2.71262 10.569 2.77094 10.569C2.87699 10.569 2.97773 10.5583 3.08377 10.5367C3.18982 10.5151 3.29056 10.4828 3.3966 10.4396C3.50265 10.3965 3.59279 10.3479 3.67762 10.2994C3.76246 10.2455 3.84199 10.1754 3.92683 10.0945L11.9332 2L12.0869 2.0054L2.4369 11.8309C2.35207 11.8957 2.28844 11.9712 2.23542 12.052C2.1824 12.1383 2.13468 12.2246 2.09756 12.3217C2.05514 12.4187 2.02333 12.5158 2.00212 12.6237C1.98091 12.7315 1.97031 12.834 1.97031 12.9418C1.97031 13.0497 1.98621 13.1468 2.01803 13.2438C2.04984 13.3409 2.08696 13.4326 2.12937 13.5297C2.17179 13.6267 2.21951 13.713 2.26723 13.7993C2.32025 13.8856 2.38388 13.9557 2.46872 14.0204L12.596 24.3636H12.4687L3.93213 15.6975C3.84729 15.6328 3.76776 15.5789 3.68292 15.525C3.59809 15.471 3.50795 15.4333 3.40191 15.4009C3.29586 15.3686 3.19512 15.3416 3.08908 15.32C2.98303 15.2985 2.88229 15.2877 2.77624 15.2877C2.71262 15.2877 2.65429 15.2877 2.60657 15.2877C2.55355 15.2877 2.50053 15.2931 2.45281 15.3039C2.39979 15.3146 2.34676 15.3308 2.29904 15.3524C2.24072 15.3632 2.1983 15.3847 2.15588 15.4063Z" stroke="#887163" stroke-width="2" stroke-miterlimit="10"/>
<path d="M15.9092 24.3636L28.3334 3.65649V24.3636H28.2113V10.499C28.2113 10.3248 28.1794 10.1506 28.1156 9.98688C28.0519 9.82321 27.9669 9.6701 27.8501 9.53283C27.7385 9.39555 27.6057 9.2794 27.4623 9.18436C27.3136 9.08933 27.1489 9.02069 26.963 8.97846C26.9205 8.97846 26.8727 8.97318 26.8249 8.96262C26.7718 8.95206 26.708 8.9415 26.639 8.93094C26.5646 8.92038 26.5062 8.9151 26.4531 8.9151C26.3999 8.9151 26.3521 8.9151 26.3096 8.9151C26.1662 8.9151 26.0122 8.93622 25.8581 8.97318C25.7041 9.01014 25.5607 9.06821 25.4385 9.13685C25.3163 9.20548 25.1995 9.28996 25.0932 9.385C24.987 9.48003 24.9073 9.59091 24.8436 9.70706L16.0101 24.3583H15.9092V24.3636Z" stroke="#887163" stroke-width="2" stroke-miterlimit="10"/>
<path d="M72.5546 15.4031C72.4115 15.4678 72.2736 15.5487 72.1517 15.6565C72.0297 15.7643 71.9184 15.8775 71.8229 16.0069C71.7275 16.1309 71.6639 16.2765 71.6214 16.4328C71.579 16.5892 71.5578 16.7563 71.5578 16.9235V24.3529H71.4041V2H71.5578V8.89024C71.5578 9.05737 71.579 9.22451 71.6214 9.38086C71.6639 9.53721 71.7328 9.68818 71.8229 9.82296C71.9184 9.95775 72.0244 10.0818 72.1517 10.1842C72.2789 10.292 72.4115 10.3729 72.5546 10.4376C72.5971 10.4592 72.6448 10.4807 72.6978 10.5023C72.7508 10.5238 72.8038 10.54 72.8516 10.5508C72.9046 10.5616 72.9576 10.567 73.0053 10.567C73.0583 10.567 73.1167 10.567 73.175 10.567C73.2757 10.567 73.3818 10.5562 73.4878 10.5346C73.5939 10.5131 73.6946 10.4807 73.8007 10.4376C73.9067 10.3945 73.9968 10.3459 74.0817 10.2974C74.1665 10.2435 74.246 10.1734 74.3309 10.0925L82.3425 2L82.4963 2.0054L72.841 11.834C72.7561 11.8987 72.6925 11.9741 72.6395 12.055C72.5864 12.1413 72.5387 12.2275 72.5016 12.3246C72.4592 12.4216 72.4274 12.5187 72.4062 12.6265C72.385 12.7343 72.3744 12.8368 72.3744 12.9446C72.3744 13.0524 72.3903 13.1495 72.4221 13.2465C72.4539 13.3436 72.491 13.4352 72.5334 13.5323C72.5758 13.6293 72.6236 13.7156 72.6713 13.8018C72.7243 13.8881 72.7879 13.9582 72.8728 14.0229L83 24.3636H82.8728L74.3362 15.6996C74.2513 15.6349 74.1718 15.581 74.087 15.5271C74.0021 15.4732 73.912 15.4354 73.806 15.4031C73.6999 15.3707 73.5992 15.3438 73.4931 15.3222C73.3871 15.3006 73.2863 15.2899 73.1803 15.2899C73.1167 15.2899 73.0583 15.2899 73.0106 15.2899C72.9576 15.2899 72.9046 15.2953 72.8569 15.306C72.8038 15.3168 72.7508 15.333 72.7031 15.3546C72.6395 15.36 72.5917 15.3815 72.5546 15.4031Z" stroke="#887163" stroke-width="2" stroke-miterlimit="10"/>
<path d="M41.4496 24.3636H30.8181L40.4467 5.47831C40.5344 5.31113 40.5947 5.12778 40.6385 4.93903C40.6824 4.75029 40.6933 4.56693 40.6714 4.38897C40.6495 4.21101 40.6001 4.02766 40.5289 3.83891C40.4522 3.65017 40.3645 3.47221 40.2549 3.29964C40.1453 3.1109 40.0193 2.94912 39.8713 2.80891C39.7233 2.6687 39.5534 2.55545 39.3726 2.45838C39.1918 2.36131 39 2.2912 38.8081 2.23727C38.6163 2.18335 38.4136 2.15639 38.1944 2.15639H31.7826V2H42.4141L32.7855 20.853C32.6978 21.0417 32.632 21.2305 32.5937 21.4192C32.5498 21.6079 32.5389 21.7913 32.5608 21.9747C32.5827 22.1526 32.632 22.3306 32.7033 22.5085C32.78 22.6865 32.8677 22.8698 32.9773 23.064C33.0869 23.2312 33.2129 23.3929 33.3664 23.5385C33.5143 23.6841 33.6842 23.8082 33.8651 23.8999C34.0459 23.9969 34.2377 24.067 34.446 24.121C34.6487 24.1749 34.857 24.2019 35.0762 24.2019H41.4551V24.3636H41.4496Z" stroke="#887163" stroke-width="2" stroke-miterlimit="10"/>
<path d="M44.9958 19.7097C44.9958 20.2975 45.1029 20.8745 45.3272 21.4354C45.5464 21.9962 45.8524 22.487 46.2398 22.9076C46.6273 23.3282 47.0862 23.6626 47.6012 23.9053C48.1212 24.1479 48.6617 24.2666 49.2174 24.2666H54.01V24.3636C53.3931 24.3636 52.3275 24.3636 50.8183 24.3636C49.3092 24.3636 48.2997 24.3636 47.7898 24.3636C47.2799 24.3636 46.7089 24.3636 46.0818 24.3636C45.4496 24.3636 45.057 24.3636 44.8989 24.3636V2H44.9907V19.7097H44.9958Z" stroke="#887163" stroke-width="2" stroke-miterlimit="10"/>
<path d="M56.4949 24.3636L68.9191 3.65649V24.3636H68.7969V10.499C68.7969 10.3248 68.7651 10.1506 68.7013 9.98688C68.6376 9.82321 68.5526 9.6701 68.4357 9.53283C68.3242 9.39555 68.1914 9.2794 68.048 9.18436C67.8993 9.08933 67.7346 9.02069 67.5487 8.97846C67.5062 8.97846 67.4584 8.97318 67.4106 8.96262C67.3575 8.95206 67.2937 8.9415 67.2247 8.93094C67.1503 8.92038 67.0919 8.9151 67.0387 8.9151C66.9856 8.9151 66.9378 8.9151 66.8953 8.9151C66.7519 8.9151 66.5979 8.93622 66.4438 8.97318C66.2898 9.01014 66.1464 9.06821 66.0242 9.13685C65.902 9.20548 65.7852 9.28996 65.6789 9.385C65.5727 9.48003 65.493 9.59091 65.4293 9.70706L56.5958 24.3583H56.4949V24.3636Z" stroke="#887163" stroke-width="2" stroke-miterlimit="10"/>
<path d="M2.20673 15.3052C2.06384 15.3687 1.92623 15.4534 1.80451 15.5539C1.67749 15.6598 1.57164 15.7762 1.47637 15.898C1.38111 16.025 1.3176 16.1626 1.27526 16.3214C1.23292 16.4801 1.21175 16.6389 1.21175 16.8083V24.1753H1.05298V2.01059H1.20646V8.84313C1.20646 9.01248 1.22763 9.17126 1.26997 9.33003C1.31231 9.4888 1.38111 9.6317 1.47108 9.7693C1.56635 9.90691 1.67219 10.0233 1.79921 10.1292C1.92094 10.235 2.05854 10.3197 2.20144 10.3779C2.24378 10.3991 2.29141 10.4203 2.34433 10.4414C2.39726 10.4626 2.45018 10.4785 2.49782 10.4891C2.55074 10.4997 2.60366 10.505 2.6513 10.505C2.70422 10.505 2.76244 10.505 2.82065 10.505C2.9265 10.505 3.02706 10.4944 3.13291 10.4732C3.23876 10.452 3.33931 10.4203 3.44516 10.3779C3.55101 10.3356 3.64098 10.288 3.72566 10.235C3.81034 10.1821 3.88973 10.1133 3.97441 10.0286L11.9713 2L12.1248 2.00529L2.48723 11.7593C2.40255 11.8228 2.33904 11.8969 2.28612 11.9763C2.23319 12.0609 2.18556 12.1509 2.14851 12.2409C2.10617 12.3361 2.07442 12.4367 2.05325 12.5373C2.03208 12.6431 2.0215 12.749 2.0215 12.8495C2.0215 12.9554 2.03737 13.0559 2.06913 13.1459C2.10088 13.2412 2.13793 13.3311 2.18027 13.4264C2.22261 13.5216 2.27024 13.6116 2.31787 13.691C2.3708 13.7757 2.4396 13.8498 2.51899 13.9133L12.6276 24.1648H12.5005L3.9797 15.5751C3.89502 15.5116 3.81563 15.4534 3.73096 15.4005C3.64628 15.3475 3.5563 15.3052 3.45046 15.2787C3.34461 15.247 3.24405 15.2205 3.1382 15.1994C3.03235 15.1782 2.9318 15.1676 2.82595 15.1676C2.76244 15.1676 2.70422 15.1676 2.65659 15.1676C2.60366 15.1676 2.55074 15.1729 2.50311 15.1835C2.45018 15.1941 2.39726 15.2099 2.34963 15.2311C2.29141 15.2629 2.24378 15.284 2.20673 15.3052Z" fill="#887163"/>
<path d="M15.8982 24.1805L28.2772 2.99487V24.1805H28.1502V9.99678C28.1502 9.81684 28.1184 9.64219 28.0549 9.47283C27.9914 9.30347 27.9067 9.14999 27.7903 9.00709C27.6739 8.86949 27.5469 8.74776 27.404 8.64721C27.2611 8.54665 27.0917 8.47785 26.9065 8.43551C26.8641 8.43551 26.8165 8.43021 26.7636 8.41963C26.7107 8.40904 26.6471 8.39846 26.5783 8.38788C26.5043 8.37729 26.446 8.372 26.3931 8.372C26.3402 8.372 26.2926 8.372 26.2555 8.372C26.1073 8.372 25.9591 8.39317 25.8056 8.43022C25.6522 8.47256 25.5093 8.52548 25.3875 8.59428C25.2658 8.66308 25.1494 8.74777 25.0435 8.84832C24.9377 8.94888 24.8583 9.05473 24.7948 9.17645L15.9935 24.1699H15.8982V24.1805Z" fill="#887163"/>
<path d="M56.8564 24.1805L69.2355 2.99487V24.1805H69.1085V9.99678C69.1085 9.81684 69.0767 9.64219 69.0132 9.47283C68.9497 9.30347 68.865 9.14999 68.7486 9.00709C68.6321 8.86949 68.5051 8.74776 68.3569 8.64721C68.214 8.54665 68.0447 8.47785 67.8594 8.43551C67.8171 8.43551 67.7695 8.43021 67.7165 8.41963C67.6636 8.40904 67.6001 8.39846 67.5313 8.38788C67.4572 8.37729 67.399 8.372 67.3461 8.372C67.2931 8.372 67.2455 8.372 67.2085 8.372C67.0603 8.372 66.9121 8.39317 66.7586 8.43022C66.6051 8.47256 66.4622 8.52548 66.3405 8.59428C66.2188 8.66308 66.1023 8.74777 65.9965 8.84832C65.8907 8.94888 65.8113 9.05473 65.7478 9.17645L56.9464 24.1699H56.8564V24.1805Z" fill="#887163"/>
<path d="M72.3211 15.3052C72.1782 15.3687 72.0406 15.4534 71.9188 15.5539C71.7971 15.6598 71.686 15.7762 71.5907 15.898C71.4955 16.025 71.4319 16.1626 71.3896 16.3214C71.3473 16.4801 71.3261 16.6389 71.3261 16.8083V24.1753H71.1726V2.01059H71.3261V8.84313C71.3261 9.01248 71.3473 9.17126 71.3896 9.33003C71.4319 9.4888 71.5007 9.6317 71.5907 9.7693C71.686 9.90691 71.7918 10.0233 71.9188 10.1292C72.0459 10.235 72.1782 10.3197 72.3211 10.3779C72.3634 10.3991 72.411 10.4203 72.464 10.4414C72.5169 10.4626 72.5698 10.4785 72.6175 10.4891C72.6704 10.4997 72.7233 10.505 72.7709 10.505C72.8239 10.505 72.8821 10.505 72.9403 10.505C73.0461 10.505 73.1467 10.4944 73.2525 10.4732C73.3584 10.452 73.4589 10.4203 73.5648 10.3779C73.6654 10.3356 73.7606 10.288 73.8453 10.235C73.93 10.1821 74.0094 10.1133 74.094 10.0286L82.0909 2L82.2444 2.00529L72.6069 11.754C72.5222 11.8175 72.4534 11.8916 72.4057 11.971C72.3528 12.0556 72.3052 12.1456 72.2629 12.2356C72.2205 12.3308 72.1888 12.4314 72.1676 12.532C72.1464 12.6325 72.1358 12.7437 72.1358 12.8442C72.1358 12.9501 72.1517 13.0506 72.1835 13.1406C72.2152 13.2359 72.2523 13.3258 72.2946 13.4211C72.337 13.5164 72.3846 13.6063 72.4375 13.6857C72.4904 13.7704 72.5539 13.8445 72.6386 13.908L82.7472 24.1595H82.6202L74.0993 15.5698C74.0147 15.5063 73.9353 15.4481 73.8506 15.3952C73.7659 15.3423 73.6759 15.2999 73.5701 15.2735C73.4642 15.2417 73.3637 15.2152 73.2578 15.1941C73.152 15.1729 73.0514 15.1623 72.9456 15.1623C72.8821 15.1623 72.8239 15.1623 72.7762 15.1623C72.7233 15.1623 72.6704 15.1676 72.6227 15.1782C72.5698 15.1888 72.5169 15.2046 72.4693 15.2258C72.411 15.2629 72.3634 15.284 72.3211 15.3052Z" fill="#887163"/>
<path d="M41.2545 24.1648H30.9924L40.2913 5.45068C40.3759 5.28132 40.4342 5.10666 40.4765 4.91613C40.5188 4.7309 40.5294 4.54566 40.5082 4.37101C40.4871 4.19107 40.4394 4.01113 40.3654 3.8206C40.2913 3.63537 40.2066 3.45542 40.1007 3.28606C39.9949 3.10082 39.8732 2.93676 39.725 2.79916C39.5821 2.66685 39.418 2.55041 39.2434 2.45515C39.0687 2.35989 38.8835 2.28579 38.6982 2.23816C38.513 2.18523 38.3119 2.15877 38.1055 2.15877H31.9133V2H42.1807L32.8818 20.6823C32.7972 20.8676 32.7389 21.0581 32.6966 21.2433C32.6543 21.4286 32.6437 21.6138 32.6648 21.7937C32.686 21.9737 32.7336 22.1483 32.8077 22.3283C32.8818 22.5029 32.9665 22.6882 33.0724 22.8787C33.1782 23.0481 33.2999 23.2015 33.4428 23.3497C33.5857 23.4979 33.7498 23.6143 33.9244 23.7096C34.0991 23.8049 34.2843 23.879 34.4854 23.9266C34.6813 23.9795 34.8824 24.006 35.0941 24.006H41.2545V24.1648Z" fill="#887163"/>
<path d="M44.9062 19.5711C44.9062 20.1532 45.0174 20.7248 45.2502 21.2752C45.4778 21.8309 45.7953 22.3125 46.1976 22.7307C46.5998 23.1488 47.0708 23.4769 47.6107 23.7203C48.1505 23.9638 48.7115 24.0802 49.2884 24.0802H54.2633V24.1755C53.6229 24.1755 52.5168 24.1755 50.9502 24.1755C49.3836 24.1755 48.3357 24.1755 47.8065 24.1755C47.2772 24.1755 46.6845 24.1755 46.0335 24.1755C45.3825 24.1755 44.9697 24.1755 44.8057 24.1755V2.02661H44.9009V19.5711H44.9062Z" fill="#887163"/>
</svg>
