<svg width="28" height="28" viewBox="0 0 28 28" fill="none" xmlns="http://www.w3.org/2000/svg">
<path fill-rule="evenodd" clip-rule="evenodd" d="M19.4456 10.771C19.7792 11.1207 19.7661 11.6745 19.4165 12.0081L12.9962 18.1331C12.6579 18.4558 12.1257 18.4556 11.7877 18.1326L8.58298 15.0701C8.2336 14.7362 8.22104 14.1823 8.55491 13.833C8.88878 13.4836 9.44266 13.471 9.79203 13.8049L12.3927 16.2902L18.2085 10.7419C18.5582 10.4083 19.112 10.4214 19.4456 10.771Z" fill="#A79080"/>
<path fill-rule="evenodd" clip-rule="evenodd" d="M14 4.375C8.68426 4.375 4.375 8.68426 4.375 14C4.375 19.3157 8.68426 23.625 14 23.625C19.3157 23.625 23.625 19.3157 23.625 14C23.625 8.68426 19.3157 4.375 14 4.375ZM2.625 14C2.625 7.71776 7.71776 2.625 14 2.625C20.2822 2.625 25.375 7.71776 25.375 14C25.375 20.2822 20.2822 25.375 14 25.375C7.71776 25.375 2.625 20.2822 2.625 14Z" fill="#A79080"/>
</svg>
