<svg width="105" height="105" viewBox="0 0 105 105" fill="none" xmlns="http://www.w3.org/2000/svg">
<path fill-rule="evenodd" clip-rule="evenodd" d="M68.5257 16.5087C60.7698 13.0529 52.1047 12.1968 43.8225 14.0681C35.5404 15.9393 28.085 20.4377 22.5682 26.8922C17.0515 33.3468 13.769 41.4117 13.2104 49.8842C12.6517 58.3568 14.8467 66.7829 19.4682 73.906C24.0896 81.029 30.8898 86.4674 38.8545 89.4099C46.8192 92.3525 55.5218 92.6416 63.6642 90.2341C71.8067 87.8266 78.9528 82.8516 84.0368 76.0509C89.1207 69.2503 91.8702 60.9884 91.875 52.4975V48.475C91.875 46.0588 93.8338 44.1 96.25 44.1C98.6663 44.1 100.625 46.0588 100.625 48.475V52.5C100.619 62.8778 97.2587 72.9781 91.0449 81.29C84.8312 89.6019 76.0971 95.6825 66.1452 98.625C56.1933 101.567 45.5568 101.214 35.8221 97.6177C26.0875 94.0212 17.7762 87.3744 12.1277 78.6684C6.47934 69.9624 3.79649 59.6638 4.47932 49.3085C5.16214 38.9532 9.17406 29.0961 15.9167 21.2072C22.6594 13.3183 31.7715 7.82028 41.8942 5.5332C52.0168 3.24613 62.6075 4.29249 72.0869 8.51625C74.294 9.49966 75.2859 12.0861 74.3025 14.2931C73.3191 16.5002 70.7327 17.4922 68.5257 16.5087Z" fill="#A79080"/>
<path fill-rule="evenodd" clip-rule="evenodd" d="M99.342 14.4049C101.051 16.1126 101.053 18.8826 99.3451 20.592L55.5951 64.3858C54.7748 65.207 53.6618 65.6685 52.5011 65.6688C51.3404 65.669 50.2271 65.2081 49.4064 64.3873L36.2814 51.2623C34.5729 49.5538 34.5729 46.7837 36.2814 45.0752C37.99 43.3666 40.76 43.3666 42.4686 45.0752L52.4985 55.105L93.1549 14.408C94.8626 12.6986 97.6326 12.6972 99.342 14.4049Z" fill="#A79080"/>
</svg>
