<svg width="19" height="19" viewBox="0 0 19 19" fill="none" xmlns="http://www.w3.org/2000/svg">
<path d="M16.625 3.5625H2.375C2.06006 3.5625 1.75801 3.68761 1.53531 3.91031C1.31261 4.13301 1.1875 4.43506 1.1875 4.75V7.1918V14.2426C1.1875 14.5575 1.31261 14.8596 1.53531 15.0823C1.75801 15.305 2.06006 15.4301 2.375 15.4301H16.625C16.9399 15.4301 17.242 15.305 17.4647 15.0823C17.6874 14.8596 17.8125 14.5575 17.8125 14.2426V4.75C17.8125 4.43506 17.6874 4.13301 17.4647 3.91031C17.242 3.68761 16.9399 3.5625 16.625 3.5625ZM10.0938 13.0625H8.90625C8.74878 13.0625 8.59775 12.9999 8.48641 12.8886C8.37506 12.7772 8.3125 12.6262 8.3125 12.4687C8.3125 12.3113 8.37506 12.1603 8.48641 12.0489C8.59775 11.9376 8.74878 11.875 8.90625 11.875H10.0938C10.2512 11.875 10.4022 11.9376 10.5136 12.0489C10.6249 12.1603 10.6875 12.3113 10.6875 12.4687C10.6875 12.6262 10.6249 12.7772 10.5136 12.8886C10.4022 12.9999 10.2512 13.0625 10.0938 13.0625ZM14.8438 13.0625H12.4688C12.3113 13.0625 12.1603 12.9999 12.0489 12.8886C11.9376 12.7772 11.875 12.6262 11.875 12.4687C11.875 12.3113 11.9376 12.1603 12.0489 12.0489C12.1603 11.9376 12.3113 11.875 12.4688 11.875H14.8438C15.0012 11.875 15.1522 11.9376 15.2636 12.0489C15.3749 12.1603 15.4375 12.3113 15.4375 12.4687C15.4375 12.6262 15.3749 12.7772 15.2636 12.8886C15.1522 12.9999 15.0012 13.0625 14.8438 13.0625ZM2.375 6.59805V4.75H16.625V6.59805H2.375Z" fill="#887163"/>
</svg>
