<svg width="93" height="83" viewBox="0 0 93 83" fill="none" xmlns="http://www.w3.org/2000/svg">
<path d="M81.9478 56.0481H80.2161L77.5257 35.9477H83.494C83.9041 35.9477 84.2973 35.7848 84.5873 35.4949C84.8773 35.2049 85.0402 34.8116 85.0402 34.4016V33.4584L87.6378 34.3243C87.7984 34.3725 87.9648 34.3986 88.1325 34.4016C88.4558 34.4062 88.7714 34.3028 89.0293 34.1078C89.2307 33.9671 89.395 33.7796 89.5081 33.5615C89.6212 33.3434 89.6798 33.1011 89.6787 32.8554V23.5783C89.6798 23.3326 89.6212 23.0903 89.5081 22.8722C89.395 22.654 89.2307 22.4666 89.0293 22.3259C88.8311 22.1822 88.6015 22.0876 88.3596 22.05C88.1177 22.0124 87.8703 22.0327 87.6378 22.1094L85.0402 22.9753V22.0321C85.0402 21.622 84.8773 21.2287 84.5873 20.9388C84.2973 20.6488 83.9041 20.4859 83.494 20.4859H71.1245C69.8954 20.4896 68.7177 20.9795 67.8486 21.8486C66.9795 22.7177 66.4896 23.8954 66.4859 25.1245H60.3012C59.8911 25.1245 59.4979 25.2874 59.2079 25.5773C58.9179 25.8673 58.755 26.2606 58.755 26.6706V32.8554C58.755 33.2655 58.9179 33.6587 59.2079 33.9487C59.4979 34.2387 59.8911 34.4016 60.3012 34.4016H66.4859C66.4859 34.8116 66.6488 35.2049 66.9388 35.4949C67.2288 35.7848 67.6221 35.9477 68.0321 35.9477V59.1405C68.0285 60.3696 67.5386 61.5473 66.6695 62.4164C65.8004 63.2855 64.6227 63.7754 63.3936 63.7791H54.1165V57.517C55.4718 57.3266 56.7043 56.6285 57.5646 55.564C58.4248 54.4995 58.8487 53.148 58.7505 51.7828C58.6523 50.4177 58.0393 49.1408 57.0355 48.2104C56.0317 47.28 54.712 46.7655 53.3434 46.771H30.9237V28.2168C30.9237 27.8068 30.7608 27.4135 30.4708 27.1235C30.1809 26.8335 29.7876 26.6706 29.3775 26.6706H1.54618C1.13611 26.6706 0.742833 26.8335 0.452867 27.1235C0.162901 27.4135 0 27.8068 0 28.2168V56.0481C0 56.4582 0.162901 56.8515 0.452867 57.1415C0.742833 57.4314 1.13611 57.5943 1.54618 57.5943H13.9157V62.2329C13.9157 62.643 14.0786 63.0362 14.3685 63.3262C14.6585 63.6162 15.0518 63.7791 15.4618 63.7791H20.2241C20.1439 64.2906 20.1026 64.8075 20.1004 65.3253V71.51C20.1004 71.9201 20.2633 72.3134 20.5533 72.6033C20.8432 72.8933 21.2365 73.0562 21.6466 73.0562H24.739C24.739 75.5166 25.7164 77.8763 27.4562 79.6161C29.196 81.3559 31.5556 82.3333 34.0161 82.3333C36.4765 82.3333 38.8362 81.3559 40.576 79.6161C42.3158 77.8763 43.2932 75.5166 43.2932 73.0562H69.5783C69.5783 75.5166 70.5557 77.8763 72.2955 79.6161C74.0353 81.3559 76.395 82.3333 78.8554 82.3333C81.3159 82.3333 83.6755 81.3559 85.4153 79.6161C87.1551 77.8763 88.1325 75.5166 88.1325 73.0562H91.2249C91.635 73.0562 92.0283 72.8933 92.3182 72.6033C92.6082 72.3134 92.7711 71.9201 92.7711 71.51V66.8714C92.7678 64.0019 91.6265 61.2509 89.5974 59.2218C87.5684 57.1928 84.8173 56.0514 81.9478 56.0481ZM85.0402 26.2377L86.5863 25.7275V30.7062L85.0402 30.1959V26.2377ZM71.1245 23.5783H81.9478V32.8554H73.0108C73.7838 32.0107 74.2139 30.908 74.2169 29.763C74.2132 28.5339 73.7233 27.3562 72.8542 26.4871C71.9851 25.618 70.8074 25.1281 69.5783 25.1245C69.5783 24.7144 69.7412 24.3211 70.0312 24.0311C70.3211 23.7412 70.7144 23.5783 71.1245 23.5783ZM61.8474 31.3092V28.2168H69.5783C69.9884 28.2168 70.3817 28.3797 70.6716 28.6697C70.9616 28.9597 71.1245 29.3529 71.1245 29.763C71.1245 30.1731 70.9616 30.5664 70.6716 30.8563C70.3817 31.1463 69.9884 31.3092 69.5783 31.3092H61.8474ZM30.9237 49.8634H53.3434C53.9585 49.8634 54.5484 50.1078 54.9834 50.5427C55.4183 50.9777 55.6627 51.5676 55.6627 52.1827C55.6627 52.7978 55.4183 53.3877 54.9834 53.8227C54.5484 54.2576 53.9585 54.502 53.3434 54.502H30.9237V49.8634ZM13.9157 29.763H17.008V31.3092H13.9157V29.763ZM3.09237 29.763H10.8233V31.3092C10.8257 32.1286 11.1523 32.9137 11.7317 33.4931C12.3111 34.0725 13.0963 34.3991 13.9157 34.4016H17.008C17.8274 34.3991 18.6126 34.0725 19.192 33.4931C19.7714 32.9137 20.098 32.1286 20.1004 31.3092V29.763H27.8313V35.9477H3.09237V29.763ZM17.008 39.0401V40.5863H13.9157V39.0401H17.008ZM3.09237 39.0401H10.8233V40.5863C10.8257 41.4057 11.1523 42.1908 11.7317 42.7702C12.3111 43.3496 13.0963 43.6762 13.9157 43.6787H17.008C17.8274 43.6762 18.6126 43.3496 19.192 42.7702C19.7714 42.1908 20.098 41.4057 20.1004 40.5863V39.0401H27.8313V45.2249H3.09237V39.0401ZM17.008 48.3172V49.8634H13.9157V48.3172H17.008ZM3.09237 54.502V48.3172H10.8233V49.8634C10.8257 50.6828 11.1523 51.4679 11.7317 52.0473C12.3111 52.6267 13.0963 52.9533 13.9157 52.9558H17.008C17.8274 52.9533 18.6126 52.6267 19.192 52.0473C19.7714 51.4679 20.098 50.6828 20.1004 49.8634V48.3172H27.8313V54.502H3.09237ZM21.1518 60.6867H17.008V57.5943H23.3629C22.4482 58.4858 21.6995 59.5329 21.1518 60.6867ZM34.0161 79.2409C32.3758 79.2409 30.8027 78.5893 29.6428 77.4295C28.4829 76.2696 27.8313 74.6965 27.8313 73.0562H29.3775C29.3775 74.2864 29.8662 75.4662 30.7361 76.3361C31.606 77.206 32.7858 77.6947 34.0161 77.6947C35.2463 77.6947 36.4261 77.206 37.296 76.3361C38.1659 75.4662 38.6546 74.2864 38.6546 73.0562H40.2008C40.2008 74.6965 39.5492 76.2696 38.3893 77.4295C37.2295 78.5893 35.6564 79.2409 34.0161 79.2409ZM32.4699 73.0562H35.5622C35.5622 73.4663 35.3993 73.8595 35.1094 74.1495C34.8194 74.4395 34.4261 74.6024 34.0161 74.6024C33.606 74.6024 33.2127 74.4395 32.9227 74.1495C32.6328 73.8595 32.4699 73.4663 32.4699 73.0562ZM44.8394 69.9638H23.1928V65.3253C23.1928 63.2749 24.0073 61.3085 25.4571 59.8587C26.9069 58.4088 28.8733 57.5943 30.9237 57.5943H37.1084C39.1588 57.5943 41.1252 58.4088 42.575 59.8587C44.0249 61.3085 44.8394 63.2749 44.8394 65.3253V69.9638ZM78.8554 79.2409C77.2151 79.2409 75.642 78.5893 74.4822 77.4295C73.3223 76.2696 72.6707 74.6965 72.6707 73.0562H74.2169C74.2169 74.2864 74.7056 75.4662 75.5755 76.3361C76.4454 77.206 77.6252 77.6947 78.8554 77.6947C80.0856 77.6947 81.2655 77.206 82.1354 76.3361C83.0053 75.4662 83.494 74.2864 83.494 73.0562H85.0402C85.0402 74.6965 84.3886 76.2696 83.2287 77.4295C82.0688 78.5893 80.4957 79.2409 78.8554 79.2409ZM77.3092 73.0562H80.4016C80.4016 73.4663 80.2387 73.8595 79.9487 74.1495C79.6588 74.4395 79.2655 74.6024 78.8554 74.6024C78.4454 74.6024 78.0521 74.4395 77.7621 74.1495C77.4721 73.8595 77.3092 73.4663 77.3092 73.0562ZM89.6787 69.9638H47.9317V65.3253C47.9325 63.884 47.6442 62.4571 47.0838 61.1292C46.5235 59.8013 45.7024 58.5993 44.6693 57.5943H51.0241V65.3253C51.0241 65.7353 51.187 66.1286 51.477 66.4186C51.7669 66.7085 52.1602 66.8714 52.5703 66.8714H63.3936C64.4088 66.8714 65.4141 66.6715 66.3521 66.283C67.29 65.8944 68.1423 65.325 68.8602 64.6071C69.578 63.8892 70.1475 63.037 70.536 62.099C70.9245 61.1611 71.1245 60.1558 71.1245 59.1405V35.9477H74.4024L77.3247 57.7953C77.3734 58.167 77.5555 58.5083 77.8371 58.7558C78.1187 59.0032 78.4806 59.14 78.8554 59.1405H81.9478C83.9982 59.1405 85.9646 59.955 87.4144 61.4049C88.8642 62.8547 89.6787 64.8211 89.6787 66.8714V69.9638Z" fill="#A79080"/>
<path d="M38.6546 60.6866H29.3775V63.779H38.6546V60.6866Z" fill="#A79080"/>
<path d="M38.6546 65.3254H29.3775V68.4177H38.6546V65.3254Z" fill="#A79080"/>
<path d="M21.6463 0.385498H3.09213V3.47787H21.6463V0.385498Z" fill="#A79080"/>
<path d="M21.6466 8.11633H6.18478V11.2087H21.6466V8.11633Z" fill="#A79080"/>
<path d="M21.6465 15.8474H10.8232V18.9398H21.6465V15.8474Z" fill="#A79080"/>
</svg>
