<svg width="19" height="19" viewBox="0 0 19 19" fill="none" xmlns="http://www.w3.org/2000/svg">
<path d="M14.8438 12.4688C14.8438 13.4136 14.4684 14.3197 13.8003 14.9878C13.1322 15.6559 12.2261 16.0312 11.2812 16.0312H10.0938V17.2188C10.0938 17.3762 10.0312 17.5272 9.91985 17.6386C9.8085 17.7499 9.65747 17.8125 9.5 17.8125C9.34253 17.8125 9.1915 17.7499 9.08016 17.6386C8.96881 17.5272 8.90625 17.3762 8.90625 17.2188V16.0312H7.71875C6.77392 16.0312 5.86778 15.6559 5.19968 14.9878C4.53158 14.3197 4.15625 13.4136 4.15625 12.4688C4.15625 12.3113 4.21881 12.1603 4.33016 12.0489C4.44151 11.9376 4.59253 11.875 4.75 11.875C4.90747 11.875 5.05849 11.9376 5.16984 12.0489C5.28119 12.1603 5.34375 12.3113 5.34375 12.4688C5.34571 13.098 5.59656 13.701 6.04153 14.146C6.48651 14.5909 7.08946 14.8418 7.71875 14.8438H11.2812C11.9111 14.8438 12.5152 14.5935 12.9606 14.1481C13.406 13.7027 13.6562 13.0986 13.6562 12.4688C13.6562 11.8389 13.406 11.2348 12.9606 10.7894C12.5152 10.344 11.9111 10.0938 11.2812 10.0938H8.01562C7.07079 10.0938 6.16466 9.71842 5.49656 9.05032C4.82846 8.38222 4.45312 7.47608 4.45312 6.53125C4.45312 5.58642 4.82846 4.68028 5.49656 4.01218C6.16466 3.34408 7.07079 2.96875 8.01562 2.96875H8.90625V1.78125C8.90625 1.62378 8.96881 1.47276 9.08016 1.36141C9.1915 1.25006 9.34253 1.1875 9.5 1.1875C9.65747 1.1875 9.8085 1.25006 9.91985 1.36141C10.0312 1.47276 10.0938 1.62378 10.0938 1.78125V2.96875H10.6875C11.6323 2.96875 12.5385 3.34408 13.2066 4.01218C13.8747 4.68028 14.25 5.58642 14.25 6.53125C14.25 6.68872 14.1874 6.83975 14.0761 6.95109C13.9647 7.06244 13.8137 7.125 13.6562 7.125C13.4988 7.125 13.3478 7.06244 13.2364 6.95109C13.1251 6.83975 13.0625 6.68872 13.0625 6.53125C13.0605 5.90196 12.8097 5.29901 12.3647 4.85403C11.9197 4.40906 11.3168 4.15821 10.6875 4.15625H8.01562C7.38574 4.15625 6.78165 4.40647 6.33625 4.85187C5.89085 5.29727 5.64062 5.90136 5.64062 6.53125C5.64062 7.16114 5.89085 7.76523 6.33625 8.21063C6.78165 8.65603 7.38574 8.90625 8.01562 8.90625H11.2812C12.2261 8.90625 13.1322 9.28158 13.8003 9.94968C14.4684 10.6178 14.8438 11.5239 14.8438 12.4688Z" fill="#887163"/>
</svg>
