<svg width="28" height="28" viewBox="0 0 28 28" fill="none" xmlns="http://www.w3.org/2000/svg">
<path d="M23.1875 3.49997V24.5C23.1875 24.732 23.0953 24.9546 22.9312 25.1187C22.7671 25.2828 22.5446 25.375 22.3125 25.375C22.0804 25.375 21.8579 25.2828 21.6938 25.1187C21.5297 24.9546 21.4375 24.732 21.4375 24.5V18.375H16.1875C16.0637 18.3737 15.9414 18.3468 15.8285 18.296C15.7155 18.2452 15.6143 18.1715 15.5313 18.0797C15.4498 17.9879 15.3884 17.8803 15.3507 17.7636C15.313 17.6468 15.3 17.5236 15.3125 17.4015C15.5836 15.2109 16.015 13.0431 16.6031 10.9156C17.9156 6.2781 19.7422 3.49997 22.0172 2.67966C22.149 2.6297 22.291 2.61272 22.4308 2.63022C22.5706 2.64772 22.7041 2.69915 22.8195 2.78004C22.9349 2.86093 23.0288 2.96882 23.0929 3.09431C23.157 3.21979 23.1895 3.35906 23.1875 3.49997ZM13.9891 8.60779L13.1141 3.35779C13.0954 3.24432 13.0546 3.13564 12.9939 3.03795C12.9332 2.94026 12.8539 2.85548 12.7604 2.78845C12.667 2.72142 12.5613 2.67344 12.4493 2.64727C12.3373 2.6211 12.2213 2.61724 12.1078 2.63591C11.8787 2.67362 11.6739 2.80082 11.5385 2.98953C11.4031 3.17824 11.3482 3.413 11.3859 3.64216L12.0969 7.87497H10.0625V3.49997C10.0625 3.26791 9.97032 3.04535 9.80622 2.88126C9.64213 2.71716 9.41957 2.62497 9.18751 2.62497C8.95544 2.62497 8.73288 2.71716 8.56879 2.88126C8.40469 3.04535 8.31251 3.26791 8.31251 3.49997V7.87497H6.27813L6.98907 3.64216C7.00774 3.52869 7.00388 3.41265 6.97771 3.30068C6.95154 3.1887 6.90356 3.08297 6.83653 2.98953C6.7695 2.89609 6.68472 2.81677 6.58703 2.7561C6.48935 2.69542 6.38066 2.65458 6.26719 2.63591C6.15372 2.61724 6.03769 2.6211 5.92571 2.64727C5.81373 2.67344 5.708 2.72142 5.61456 2.78845C5.52112 2.85548 5.4418 2.94026 5.38113 3.03795C5.32045 3.13564 5.27962 3.24432 5.26094 3.35779L4.38594 8.60779C4.37598 8.65448 4.3723 8.7023 4.37501 8.74997C4.37627 9.8746 4.77048 10.9634 5.48946 11.8282C6.20845 12.693 7.20701 13.2793 8.31251 13.4859V24.5C8.31251 24.732 8.40469 24.9546 8.56879 25.1187C8.73288 25.2828 8.95544 25.375 9.18751 25.375C9.41957 25.375 9.64213 25.2828 9.80622 25.1187C9.97032 24.9546 10.0625 24.732 10.0625 24.5V13.4859C11.168 13.2793 12.1666 12.693 12.8855 11.8282C13.6045 10.9634 13.9987 9.8746 14 8.74997C14.0018 8.70594 13.9981 8.66186 13.9891 8.61872V8.60779Z" fill="#887163"/>
</svg>
