<svg width="24" height="24" viewBox="0 0 24 24" fill="none" xmlns="http://www.w3.org/2000/svg">
<path d="M20.5125 9.72184L13.0125 2.90621C12.736 2.65324 12.3748 2.51294 12 2.51294C11.6252 2.51294 11.264 2.65324 10.9875 2.90621L3.48749 9.72184C3.33393 9.86232 3.21129 10.0332 3.12736 10.2237C3.04343 10.4141 3.00005 10.62 2.99999 10.8281V19.4625C2.99389 19.8406 3.1274 20.2078 3.37499 20.4937C3.51551 20.6535 3.68861 20.7814 3.88266 20.8687C4.0767 20.956 4.2872 21.0008 4.49999 21H8.99999C9.1989 21 9.38966 20.9209 9.53032 20.7803C9.67097 20.6396 9.74999 20.4489 9.74999 20.25V15.75C9.74999 15.551 9.829 15.3603 9.96966 15.2196C10.1103 15.079 10.3011 15 10.5 15H13.5C13.6989 15 13.8897 15.079 14.0303 15.2196C14.171 15.3603 14.25 15.551 14.25 15.75V20.25C14.25 20.4489 14.329 20.6396 14.4697 20.7803C14.6103 20.9209 14.8011 21 15 21H19.5C19.7488 21.0022 19.994 20.9408 20.2125 20.8218C20.4502 20.6924 20.6488 20.5013 20.7873 20.2688C20.9259 20.0362 20.9993 19.7707 21 19.5V10.8281C20.9999 10.62 20.9565 10.4141 20.8726 10.2237C20.7887 10.0332 20.666 9.86232 20.5125 9.72184Z" fill="#A79080"/>
</svg>
