<svg width="197" height="69" viewBox="0 0 197 69" fill="none" xmlns="http://www.w3.org/2000/svg">
<path d="M4.10283 32.126C3.76907 32.2743 3.44767 32.4597 3.16335 32.7069C2.86668 32.9542 2.61946 33.2138 2.39695 33.5104C2.17445 33.7948 2.0261 34.1285 1.92721 34.487C1.82832 34.8455 1.77888 35.2287 1.77888 35.6119V52.6459H1.42041V1.39551H1.77888V17.1934C1.77888 17.5766 1.82832 17.9598 1.92721 18.3183C2.0261 18.6768 2.18681 19.0229 2.39695 19.3319C2.61946 19.641 2.86668 19.9253 3.16335 20.1601C3.44767 20.4074 3.76907 20.5928 4.10283 20.7411C4.20172 20.7906 4.31298 20.84 4.4366 20.8894C4.56021 20.9389 4.67145 20.976 4.79507 21.0007C4.91868 21.0254 5.04229 21.0378 5.15354 21.0378C5.27715 21.0378 5.41314 21.0378 5.54911 21.0378C5.79634 21.0378 6.0312 21.0131 6.27843 20.9636C6.52566 20.9142 6.76052 20.84 7.00775 20.7411C7.25498 20.6422 7.46514 20.531 7.66292 20.4197C7.86071 20.2961 8.04611 20.1354 8.24389 19.95L26.922 1.39551L27.2805 1.40788L4.77034 23.9427C4.57256 24.0911 4.42423 24.2641 4.30062 24.4495C4.17701 24.6473 4.06574 24.8451 3.97921 25.0676C3.88032 25.2901 3.80616 25.5126 3.75671 25.7598C3.70727 26.0071 3.68255 26.2419 3.68255 26.4892C3.68255 26.7364 3.71963 26.9589 3.7938 27.1814C3.86797 27.4039 3.95449 27.614 4.05338 27.8365C4.15227 28.0591 4.26353 28.2568 4.38714 28.4546C4.51075 28.6524 4.6591 28.8131 4.85688 28.9614L28.4671 52.6706H28.1705L8.26862 32.8058C8.07084 32.6575 7.88541 32.5339 7.68763 32.4103C7.48985 32.2867 7.27971 32.2001 7.03248 32.126C6.78525 32.0518 6.55039 31.99 6.30316 31.9405C6.05593 31.8911 5.82107 31.8664 5.57384 31.8664C5.42551 31.8664 5.28952 31.8664 5.17827 31.8664C5.05465 31.8664 4.93105 31.8787 4.8198 31.9035C4.69618 31.9282 4.57256 31.9653 4.4613 32.0147C4.31297 32.0271 4.20172 32.0765 4.10283 32.126Z" stroke="#A79080" stroke-width="2" stroke-miterlimit="10"/>
<path d="M36.0942 52.6953L65.0075 4.21387V52.6953H64.7109V20.2343C64.7109 19.8263 64.6367 19.4184 64.4884 19.0352C64.34 18.652 64.1299 18.2935 63.8703 17.9721C63.5983 17.6507 63.3017 17.3788 62.9556 17.1563C62.6218 16.9338 62.2262 16.7731 61.7936 16.6742C61.6947 16.6742 61.5834 16.6618 61.4598 16.6371C61.3362 16.6124 61.1879 16.5876 61.0272 16.5629C60.8541 16.5382 60.7058 16.5258 60.5945 16.5258C60.4709 16.5258 60.3597 16.5258 60.2608 16.5258C59.927 16.5258 59.5685 16.5753 59.2101 16.6618C58.8516 16.7483 58.5178 16.8843 58.2335 17.045C57.9492 17.2057 57.6772 17.4035 57.43 17.626C57.1828 17.8485 56.9974 18.1081 56.849 18.38L36.292 52.6829H36.0942V52.6953Z" stroke="#A79080" stroke-width="2" stroke-miterlimit="10"/>
<path d="M168.794 32.126C168.46 32.2743 168.139 32.4597 167.854 32.7069C167.57 32.9542 167.31 33.2138 167.088 33.5104C166.865 33.7948 166.717 34.1285 166.618 34.487C166.519 34.8455 166.47 35.2287 166.47 35.6119V52.6459H166.111V1.39551H166.47V17.1934C166.47 17.5766 166.519 17.9598 166.618 18.3183C166.717 18.6768 166.878 19.0229 167.088 19.3319C167.31 19.641 167.558 19.9253 167.854 20.1601C168.139 20.4074 168.46 20.5928 168.794 20.7411C168.893 20.7906 169.004 20.84 169.128 20.8894C169.251 20.9389 169.362 20.976 169.486 21.0007C169.61 21.0254 169.733 21.0378 169.844 21.0378C169.968 21.0378 170.104 21.0378 170.24 21.0378C170.487 21.0378 170.722 21.0131 170.969 20.9636C171.217 20.9142 171.451 20.84 171.699 20.7411C171.946 20.6422 172.156 20.531 172.354 20.4197C172.552 20.2961 172.737 20.1354 172.935 19.95L191.613 1.39551L191.971 1.40788L169.449 23.9304C169.251 24.0787 169.103 24.2517 168.979 24.4372C168.856 24.6349 168.744 24.8327 168.658 25.0552C168.559 25.2777 168.485 25.5003 168.435 25.7475C168.386 25.9947 168.361 26.2296 168.361 26.4768C168.361 26.724 168.398 26.9465 168.472 27.169C168.547 27.3915 168.633 27.6017 168.732 27.8242C168.831 28.0467 168.942 28.2445 169.053 28.4423C169.177 28.64 169.325 28.8008 169.523 28.9491L193.133 52.6583H192.837L172.935 32.7935C172.737 32.6451 172.552 32.5215 172.354 32.3979C172.156 32.2743 171.946 32.1878 171.699 32.1136C171.451 32.0394 171.217 31.9776 170.969 31.9282C170.722 31.8787 170.487 31.854 170.24 31.854C170.092 31.854 169.956 31.854 169.844 31.854C169.721 31.854 169.597 31.8664 169.486 31.8911C169.362 31.9158 169.239 31.9529 169.128 32.0024C169.004 32.0271 168.893 32.0765 168.794 32.126Z" stroke="#A79080" stroke-width="2" stroke-miterlimit="10"/>
<path d="M95.3176 52.6336H71.3364L93.0554 9.34395C93.2532 8.96075 93.3892 8.54046 93.4881 8.10781C93.587 7.67516 93.6117 7.25487 93.5622 6.84694C93.5128 6.43902 93.4015 6.01872 93.2408 5.58607C93.0678 5.15342 92.87 4.7455 92.6228 4.34993C92.3755 3.91728 92.0912 3.54646 91.7451 3.22506C91.4114 2.90366 91.0281 2.64406 90.6202 2.42156C90.2123 2.19905 89.7796 2.03835 89.347 1.91474C88.9144 1.79112 88.4446 1.72932 87.9625 1.72932H73.4997V1.37085H97.4808L75.7618 44.5863C75.564 45.019 75.4281 45.4516 75.3292 45.8843C75.2303 46.3169 75.2056 46.7372 75.255 47.1575C75.3045 47.5654 75.4157 47.9733 75.5888 48.3813C75.7618 48.7892 75.9596 49.2095 76.2068 49.6545C76.454 50.0377 76.7384 50.4085 77.0845 50.7423C77.4183 51.076 77.8015 51.3604 78.2094 51.5705C78.6173 51.793 79.0623 51.9537 79.5197 52.0773C79.9771 52.2009 80.4468 52.2627 80.9413 52.2627H95.3299V52.6336H95.3176Z" stroke="#A79080" stroke-width="2" stroke-miterlimit="10"/>
<path d="M103.834 41.9779C103.834 43.3253 104.106 44.648 104.638 45.9335C105.17 47.2191 105.911 48.344 106.851 49.3082C107.79 50.2724 108.903 51.0388 110.151 51.5951C111.412 52.1513 112.722 52.4233 114.07 52.4233H125.689V52.6458C124.194 52.6458 121.61 52.6458 117.951 52.6458C114.292 52.6458 111.845 52.6458 110.609 52.6458C109.372 52.6458 107.988 52.6458 106.467 52.6458C104.947 52.6458 103.983 52.6458 103.6 52.6458V1.38306H103.822V41.9779H103.834Z" stroke="#A79080" stroke-width="2" stroke-miterlimit="10"/>
<path d="M131.747 52.6953L160.66 4.21387V52.6953H160.363V20.2343C160.363 19.8263 160.289 19.4184 160.141 19.0352C159.992 18.652 159.782 18.2935 159.523 17.9721C159.251 17.6507 158.954 17.3788 158.62 17.1563C158.287 16.9338 157.891 16.7731 157.458 16.6742C157.359 16.6742 157.248 16.6618 157.125 16.6371C157.001 16.6124 156.853 16.5876 156.692 16.5629C156.519 16.5382 156.37 16.5258 156.259 16.5258C156.136 16.5258 156.024 16.5258 155.925 16.5258C155.592 16.5258 155.233 16.5753 154.875 16.6618C154.516 16.7483 154.183 16.8843 153.898 17.045C153.614 17.2057 153.342 17.4035 153.095 17.626C152.847 17.8485 152.662 18.1081 152.514 18.38L131.957 52.6829H131.747V52.6953Z" stroke="#A79080" stroke-width="2" stroke-miterlimit="10"/>
<path d="M4.22637 32.0766C3.89261 32.2249 3.57122 32.4227 3.28691 32.6576C3.0026 32.9048 2.74301 33.1767 2.52051 33.461C2.298 33.7577 2.14966 34.0791 2.05077 34.45C1.95188 34.8208 1.90244 35.1916 1.90244 35.5872V52.7943H1.54395V1.02473H1.90244V16.9833C1.90244 17.3789 1.95188 17.7497 2.05077 18.1205C2.14966 18.4914 2.31036 18.8251 2.52051 19.1465C2.74301 19.4679 2.99023 19.7399 3.28691 19.9871C3.57122 20.2343 3.89261 20.4321 4.22637 20.5681C4.32526 20.6175 4.43652 20.667 4.56013 20.7164C4.68374 20.7659 4.79501 20.803 4.91862 20.8277C5.04224 20.8524 5.16584 20.8648 5.27709 20.8648C5.40071 20.8648 5.52433 20.8648 5.67267 20.8648C5.9199 20.8648 6.15476 20.84 6.40199 20.7906C6.64921 20.7412 6.88408 20.667 7.13131 20.5681C7.37853 20.4692 7.58868 20.358 7.78646 20.2343C7.98424 20.1107 8.16966 19.95 8.36745 19.7522L27.0332 1L27.3916 1.01235L4.88154 23.7821C4.68376 23.9304 4.52305 24.1035 4.4118 24.2889C4.28819 24.4867 4.17692 24.6968 4.09039 24.9069C3.9915 25.1295 3.91734 25.3643 3.8679 25.5992C3.81845 25.8464 3.79373 26.0936 3.79373 26.3285C3.79373 26.5757 3.83081 26.8106 3.90498 27.0208C3.97915 27.2433 4.06568 27.4534 4.16458 27.6759C4.26347 27.8984 4.37471 28.1086 4.48597 28.294C4.60958 28.4918 4.75792 28.6648 4.9557 28.8132L28.566 52.7572H28.2693L8.36745 32.6946C8.16966 32.5463 7.98424 32.4103 7.78646 32.2867C7.58868 32.1631 7.37853 32.0642 7.13131 32.0024C6.88408 31.9282 6.64921 31.8664 6.40199 31.817C6.15476 31.7675 5.9199 31.7428 5.67267 31.7428C5.52433 31.7428 5.38835 31.7428 5.27709 31.7428C5.15348 31.7428 5.02987 31.7552 4.91862 31.7799C4.79501 31.8046 4.67138 31.8417 4.56013 31.8911C4.43652 31.9777 4.32526 32.0271 4.22637 32.0766Z" fill="#A79080"/>
<path d="M36.2056 52.8067L65.1189 3.32397V52.8067H64.8222V19.6781C64.8222 19.2578 64.748 18.8499 64.5997 18.4543C64.4514 18.0588 64.2536 17.7003 63.9816 17.3665C63.7097 17.0451 63.413 16.7608 63.0669 16.526C62.7208 16.2911 62.3376 16.1304 61.9049 16.0315C61.806 16.0315 61.6948 16.0191 61.5712 15.9944C61.4475 15.9697 61.2992 15.945 61.1385 15.9202C60.9655 15.8955 60.8171 15.8832 60.7059 15.8832C60.5822 15.8832 60.471 15.8832 60.3845 15.8832C60.0383 15.8832 59.6922 15.9326 59.3337 16.0191C58.9753 16.118 58.6415 16.2416 58.3572 16.4023C58.0729 16.563 57.8009 16.7608 57.5537 16.9957C57.3065 17.2306 57.1211 17.4778 56.9727 17.7621L36.4157 52.782H36.2056V52.8067Z" fill="#A79080"/>
<path d="M131.87 52.8067L160.783 3.32397V52.8067H160.487V19.6781C160.487 19.2578 160.413 18.8499 160.264 18.4543C160.116 18.0588 159.918 17.7003 159.646 17.3665C159.374 17.0451 159.078 16.7608 158.744 16.526C158.398 16.2911 158.015 16.1304 157.582 16.0315C157.483 16.0315 157.372 16.0191 157.248 15.9944C157.124 15.9697 156.976 15.945 156.815 15.9202C156.642 15.8955 156.494 15.8832 156.383 15.8832C156.259 15.8832 156.148 15.8832 156.061 15.8832C155.715 15.8832 155.369 15.9326 155.011 16.0191C154.652 16.118 154.318 16.2416 154.034 16.4023C153.75 16.563 153.478 16.7608 153.231 16.9957C152.983 17.2306 152.798 17.4778 152.65 17.7621L132.093 52.782H131.87V52.8067Z" fill="#A79080"/>
<path d="M168.003 32.0766C167.669 32.2249 167.348 32.4227 167.063 32.6576C166.779 32.9048 166.519 33.1767 166.297 33.461C166.074 33.7577 165.926 34.0791 165.827 34.45C165.728 34.8208 165.679 35.1916 165.679 35.5872V52.7943H165.32V1.02473H165.679V16.9833C165.679 17.3789 165.728 17.7497 165.827 18.1205C165.926 18.4914 166.074 18.8251 166.297 19.1465C166.519 19.4679 166.767 19.7399 167.063 19.9871C167.348 20.2343 167.669 20.4321 168.003 20.5681C168.102 20.6175 168.213 20.667 168.324 20.7164C168.448 20.7659 168.571 20.803 168.683 20.8277C168.806 20.8524 168.93 20.8648 169.041 20.8648C169.165 20.8648 169.301 20.8648 169.437 20.8648C169.684 20.8648 169.919 20.84 170.166 20.7906C170.413 20.7412 170.648 20.667 170.895 20.5681C171.143 20.4692 171.353 20.358 171.55 20.2343C171.748 20.1107 171.934 19.95 172.131 19.7522L190.797 1L191.156 1.01235L168.646 23.7821C168.448 23.9304 168.287 24.1035 168.176 24.2889C168.052 24.4867 167.941 24.6968 167.854 24.9069C167.756 25.1295 167.681 25.3643 167.632 25.5992C167.582 25.8464 167.558 26.0936 167.558 26.3285C167.558 26.5757 167.595 26.8106 167.669 27.0208C167.743 27.2433 167.83 27.4534 167.929 27.6759C168.027 27.8984 168.139 28.1086 168.25 28.294C168.374 28.4918 168.522 28.6648 168.72 28.8132L192.33 52.7572H192.033L172.131 32.6946C171.934 32.5463 171.748 32.4103 171.55 32.2867C171.353 32.1631 171.143 32.0642 170.895 32.0024C170.648 31.9282 170.413 31.8664 170.166 31.817C169.919 31.7675 169.684 31.7428 169.437 31.7428C169.288 31.7428 169.152 31.7428 169.041 31.7428C168.917 31.7428 168.794 31.7552 168.683 31.7799C168.559 31.8046 168.435 31.8417 168.324 31.8911C168.213 31.9777 168.102 32.0271 168.003 32.0766Z" fill="#A79080"/>
<path d="M95.4414 52.7695H71.4727L93.1917 9.05964C93.3894 8.66408 93.5254 8.25614 93.6243 7.81113C93.7232 7.37848 93.7479 6.94583 93.6985 6.5379C93.649 6.11762 93.5378 5.69734 93.3771 5.25233C93.204 4.81968 93.0062 4.39938 92.759 4.00381C92.5118 3.57116 92.2274 3.18796 91.8937 2.86657C91.5476 2.55753 91.1767 2.28559 90.7688 2.06308C90.3609 1.84058 89.9282 1.66751 89.4956 1.55626C89.0629 1.43265 88.5932 1.37085 88.1111 1.37085H73.6483V1H97.6294L75.9104 44.6358C75.7126 45.0684 75.5766 45.5134 75.4777 45.9461C75.3788 46.3787 75.3541 46.8114 75.4036 47.2316C75.453 47.6519 75.5643 48.0599 75.7374 48.4802C75.9104 48.8881 76.1082 49.3207 76.3554 49.7657C76.5903 50.1613 76.8869 50.5198 77.2207 50.8659C77.5545 51.212 77.9377 51.484 78.3456 51.7065C78.7535 51.929 79.1985 52.102 79.6559 52.2133C80.1133 52.3369 80.583 52.3987 81.0775 52.3987H95.4661V52.7695H95.4414Z" fill="#A79080"/>
<path d="M103.958 42.0398C103.958 43.3996 104.23 44.7346 104.761 46.0202C105.293 47.3181 106.035 48.443 106.974 49.4196C107.914 50.3961 109.014 51.1625 110.275 51.7311C111.536 52.2998 112.846 52.5717 114.193 52.5717H125.813V52.7942C124.317 52.7942 121.734 52.7942 118.075 52.7942C114.416 52.7942 111.968 52.7942 110.732 52.7942C109.496 52.7942 108.111 52.7942 106.591 52.7942C105.071 52.7942 104.106 52.7942 103.723 52.7942V1.06177H103.946V42.0398H103.958Z" fill="#A79080"/>
<path d="M30.247 65.7985H27.2926V68.4315H30.247V67.4055H28.7142V66.8987H30.9516V68.1101C30.9516 68.4562 30.8898 68.6787 30.7538 68.8024C30.6302 68.926 30.383 68.9878 30.0245 68.9878H27.4904C27.132 68.9878 26.8847 68.926 26.7611 68.8024C26.6375 68.6787 26.5757 68.4439 26.5757 68.1101V66.1447C26.5757 65.7985 26.6375 65.5637 26.7735 65.4401C26.8971 65.3164 27.1443 65.2546 27.5028 65.2546H30.0369C30.3706 65.2546 30.6055 65.3164 30.7538 65.4401C30.8898 65.5637 30.964 65.7862 30.964 66.0952V66.2065L30.2594 66.3301V65.7985H30.247Z" fill="#A79080"/>
<path d="M34.2769 68.9877V65.2422H37.293C37.8122 65.2422 38.0842 65.4894 38.0842 65.9715V66.8121C38.0842 67.2942 37.8246 67.5291 37.293 67.5291H36.7986L38.455 69.0001H37.5155L36.0198 67.5291H34.9938V69.0001H34.2769V68.9877ZM36.984 65.7985H34.9814V66.9975H36.984C37.1694 66.9975 37.293 66.9481 37.3425 66.8615C37.3672 66.8121 37.3919 66.7256 37.3919 66.6143V66.1693C37.3796 65.9221 37.2436 65.7985 36.984 65.7985Z" fill="#A79080"/>
<path d="M42.1509 68.9878H41.4463V65.2546H42.1509V68.9878Z" fill="#A79080"/>
<path d="M45.6372 68.9877V65.2422H46.3418V68.4191H49.2591V68.9877H45.6372Z" fill="#A79080"/>
<path d="M52.1265 68.9877V65.2422H52.8311V68.4191H55.7484V68.9877H52.1265Z" fill="#A79080"/>
<path d="M63.6846 68.9878V65.2546H64.3892V66.7504H67.3806V65.2546H68.0852V68.9878H67.3806V67.319H64.3892V68.9878H63.6846Z" fill="#A79080"/>
<path d="M71.4971 66.1322C71.4971 65.7861 71.5589 65.5513 71.6949 65.4276C71.8185 65.304 72.0657 65.2422 72.4242 65.2422H75.1313C75.4898 65.2422 75.7247 65.304 75.8606 65.4276C75.9843 65.5513 76.0584 65.7861 76.0584 66.1322V68.0977C76.0584 68.4438 75.9966 68.6663 75.8606 68.7899C75.737 68.9136 75.4898 68.9754 75.1313 68.9754H72.4242C72.0657 68.9754 71.8185 68.9136 71.6949 68.7899C71.5712 68.6663 71.5094 68.4315 71.5094 68.0853V66.1322H71.4971ZM72.2017 68.4315H75.3291V65.7985H72.2017V68.4315Z" fill="#A79080"/>
<path d="M80.1501 65.2422V68.4315H82.8819V65.2422H83.5865V68.0977C83.5865 68.4438 83.5247 68.6663 83.4011 68.7899C83.2775 68.9136 83.0303 68.9754 82.6718 68.9754H80.3478C79.9894 68.9754 79.7545 68.9136 79.6309 68.7899C79.5073 68.6663 79.4331 68.4314 79.4331 68.0977V65.2422H80.1501Z" fill="#A79080"/>
<path d="M90.3976 65.7985H87.777V66.7627H90.1751C90.5336 66.7627 90.7684 66.8245 90.892 66.9481C91.0157 67.0717 91.0775 67.3066 91.0775 67.6527V68.11C91.0775 68.4562 91.0157 68.691 90.892 68.8147C90.7684 68.9383 90.5212 69.0001 90.1751 69.0001H87.9006C87.5421 69.0001 87.2949 68.9383 87.1713 68.8147C87.0477 68.691 86.9858 68.4685 86.9858 68.1224V68.0112L87.6287 67.8752V68.4315H90.4594V67.3684H88.0489C87.6905 67.3684 87.4556 67.3066 87.332 67.1829C87.2083 67.0593 87.1465 66.8245 87.1465 66.4907V66.1322C87.1465 65.7861 87.2083 65.5513 87.332 65.4276C87.4556 65.304 87.7028 65.2422 88.0489 65.2422H90.138C90.4718 65.2422 90.7066 65.304 90.855 65.4153C90.9909 65.5265 91.0651 65.749 91.0651 66.058V66.1446L90.4223 66.2805V65.7985H90.3976Z" fill="#A79080"/>
<path d="M94.4893 68.9877V65.2422H98.2595V65.7985H95.1939V66.7627H97.0357V67.3189H95.1939V68.4438H98.2966V68.9877H94.4893Z" fill="#A79080"/>
<path d="M109.669 68.7157C109.545 68.8393 109.422 68.9134 109.31 68.9505C109.212 68.9753 109.063 69 108.865 69H107.37C106.962 69 106.677 68.9258 106.529 68.7775C106.381 68.6292 106.307 68.3448 106.307 67.9245V67.6279C106.307 67.4054 106.344 67.2447 106.43 67.1211C106.492 67.0222 106.628 66.9109 106.838 66.7749L107.716 66.2187C107.469 65.9962 107.345 65.7613 107.345 65.5264V65.2669C107.345 64.9578 107.432 64.7353 107.592 64.6117C107.765 64.4881 108.037 64.4263 108.408 64.4263H109.261C109.657 64.4263 109.941 64.4881 110.089 64.6117C110.238 64.7353 110.324 64.9825 110.324 65.341V65.5759L109.718 65.6871V64.9702H107.975V65.6377L110.188 67.4424L111.251 66.4412L111.634 66.812L110.608 67.7886L112.055 68.9753H111.115L110.176 68.2089L109.669 68.7157ZM106.949 68.4066H109.162L109.755 67.8628L108.124 66.5524L106.962 67.3806V68.4066H106.949Z" fill="#A79080"/>
<path d="M123.415 65.7985H120.795V66.7627H123.193C123.551 66.7627 123.786 66.8245 123.91 66.9481C124.033 67.0717 124.095 67.3066 124.095 67.6527V68.11C124.095 68.4562 124.033 68.691 123.91 68.8147C123.786 68.9383 123.539 69.0001 123.193 69.0001H120.918C120.56 69.0001 120.312 68.9383 120.189 68.8147C120.065 68.691 120.003 68.4685 120.003 68.1224V68.0112L120.646 67.8752V68.4315H123.465V67.3684H121.054C120.696 67.3684 120.461 67.3066 120.337 67.1829C120.214 67.0593 120.152 66.8245 120.152 66.4907V66.1322C120.152 65.7861 120.214 65.5513 120.337 65.4276C120.461 65.304 120.708 65.2422 121.054 65.2422H123.143C123.477 65.2422 123.712 65.304 123.86 65.4153C123.996 65.5265 124.07 65.749 124.07 66.058V66.1446L123.428 66.2805V65.7985H123.415Z" fill="#A79080"/>
<path d="M128.075 65.9343L128.087 66.4535V68.9752H127.506V65.2297H128.087L129.954 67.6526L131.672 65.2297H132.327V68.9752H131.672V66.4535C131.672 66.2681 131.685 66.095 131.722 65.9343C131.635 66.1692 131.561 66.3423 131.474 66.4535L130.04 68.3819H129.855L128.359 66.4659C128.236 66.3423 128.137 66.1568 128.075 65.9343Z" fill="#A79080"/>
<path d="M135.739 66.1322C135.739 65.7861 135.801 65.5513 135.937 65.4276C136.061 65.304 136.308 65.2422 136.666 65.2422H139.374C139.732 65.2422 139.967 65.304 140.103 65.4276C140.226 65.5513 140.301 65.7861 140.301 66.1322V68.0977C140.301 68.4438 140.239 68.6663 140.103 68.7899C139.967 68.9136 139.732 68.9754 139.374 68.9754H136.666C136.308 68.9754 136.061 68.9136 135.937 68.7899C135.813 68.6663 135.752 68.4315 135.752 68.0853V66.1322H135.739ZM136.444 68.4315H139.571V65.7985H136.444V68.4315Z" fill="#A79080"/>
<path d="M143.688 68.9877V65.2422H144.392V66.8492L146.766 65.2422H147.742L144.973 67.047L148.051 68.9754H146.889L144.392 67.2942V68.9754H143.688V68.9877Z" fill="#A79080"/>
<path d="M150.783 68.9877V65.2422H154.553V65.7985H151.488V66.7627H153.33V67.3189H151.488V68.4438H154.59V68.9877H150.783Z" fill="#A79080"/>
<path d="M157.681 68.9877V65.2422H160.697C161.216 65.2422 161.488 65.4894 161.488 65.9715V66.8121C161.488 67.2942 161.228 67.5291 160.697 67.5291H160.202L161.859 69.0001H160.919L159.424 67.5291H158.398V69.0001H157.681V68.9877ZM160.388 65.7985H158.385V66.9975H160.388C160.573 66.9975 160.697 66.9481 160.746 66.8615C160.771 66.8121 160.796 66.7256 160.796 66.6143V66.1693C160.783 65.9221 160.66 65.7985 160.388 65.7985Z" fill="#A79080"/>
<path d="M166.136 68.9877V67.356L164.183 65.2422H165.036L166.531 66.8615L167.953 65.2422H168.781L166.84 67.356V68.9877H166.136Z" fill="#A79080"/>
<path d="M1 66.8862H20.6299" stroke="#A79080" stroke-width="0.5" stroke-miterlimit="10"/>
<path d="M177.163 66.8862H196.793" stroke="#A79080" stroke-width="0.5" stroke-miterlimit="10"/>
</svg>
