<svg width="28" height="28" viewBox="0 0 28 28" fill="none" xmlns="http://www.w3.org/2000/svg">
<path d="M21.875 24.5H16.4609C17.3741 23.6898 18.2327 22.8202 19.0312 21.8969C22.0391 18.4516 23.625 14.8094 23.625 11.375C23.625 8.82229 22.6109 6.37414 20.8059 4.5691C19.0009 2.76406 16.5527 1.75 14 1.75C11.4473 1.75 8.99914 2.76406 7.1941 4.5691C5.38906 6.37414 4.375 8.82229 4.375 11.375C4.375 14.8094 5.96094 18.4516 8.96875 21.8969C9.7673 22.8202 10.6259 23.6898 11.5391 24.5H6.125C5.89294 24.5 5.67038 24.5922 5.50628 24.7563C5.34219 24.9204 5.25 25.1429 5.25 25.375C5.25 25.6071 5.34219 25.8296 5.50628 25.9937C5.67038 26.1578 5.89294 26.25 6.125 26.25H21.875C22.1071 26.25 22.3296 26.1578 22.4937 25.9937C22.6578 25.8296 22.75 25.6071 22.75 25.375C22.75 25.1429 22.6578 24.9204 22.4937 24.7563C22.3296 24.5922 22.1071 24.5 21.875 24.5ZM14 7.875C14.6922 7.875 15.3689 8.08027 15.9445 8.46486C16.5201 8.84944 16.9687 9.39607 17.2336 10.0356C17.4985 10.6751 17.5678 11.3789 17.4327 12.0578C17.2977 12.7367 16.9644 13.3604 16.4749 13.8499C15.9854 14.3394 15.3617 14.6727 14.6828 14.8077C14.0039 14.9428 13.3001 14.8735 12.6606 14.6086C12.0211 14.3437 11.4744 13.8951 11.0899 13.3195C10.7053 12.7439 10.5 12.0672 10.5 11.375C10.5 10.4467 10.8687 9.5565 11.5251 8.90013C12.1815 8.24375 13.0717 7.875 14 7.875Z" fill="#A79080"/>
</svg>
