<svg width="24" height="25" viewBox="0 0 24 25" fill="none" xmlns="http://www.w3.org/2000/svg">
<path d="M16.9281 4.94464L16.0057 10.0027C15.9297 10.4205 15.7094 10.7984 15.3834 11.0706C15.0573 11.3427 14.6462 11.4919 14.2215 11.4921H5.45119L5.78385 13.3066H13.9115C14.2704 13.3066 14.6212 13.4131 14.9196 13.6124C15.218 13.8118 15.4505 14.0952 15.5879 14.4268C15.7252 14.7583 15.7612 15.1232 15.6911 15.4752C15.6211 15.8272 15.4483 16.1505 15.1945 16.4042C14.9408 16.658 14.6175 16.8308 14.2655 16.9008C13.9135 16.9709 13.5486 16.9349 13.2171 16.7976C12.8855 16.6602 12.6021 16.4277 12.4027 16.1293C12.2034 15.8309 12.0969 15.4801 12.0969 15.1212C12.097 14.915 12.1328 14.7103 12.2028 14.5163H7.75716C7.82713 14.7103 7.86295 14.915 7.86301 15.1212C7.86356 15.4139 7.79326 15.7025 7.65811 15.9622C7.52296 16.2219 7.32699 16.445 7.0869 16.6126C6.84682 16.7801 6.56976 16.8871 6.27938 16.9243C5.989 16.9616 5.69391 16.928 5.41931 16.8265C5.14471 16.725 4.89875 16.5586 4.70242 16.3414C4.50609 16.1242 4.36523 15.8628 4.29185 15.5793C4.21848 15.2959 4.21477 14.999 4.28104 14.7138C4.34732 14.4286 4.48161 14.1637 4.67245 13.9417L2.57817 2.41941H1.2097C1.04929 2.41941 0.895444 2.35568 0.782014 2.24225C0.668583 2.12882 0.604858 1.97498 0.604858 1.81456C0.604858 1.65415 0.668583 1.5003 0.782014 1.38687C0.895444 1.27344 1.04929 1.20972 1.2097 1.20972H2.57817C2.86051 1.21033 3.13374 1.30969 3.35053 1.49058C3.56732 1.67147 3.714 1.92249 3.76518 2.20015L4.13565 4.23395H16.3309C16.4192 4.23413 16.5063 4.25389 16.5861 4.2918C16.6658 4.32971 16.7362 4.38484 16.792 4.4532C16.8505 4.51942 16.8932 4.59808 16.9168 4.68323C16.9403 4.76837 16.9442 4.85777 16.9281 4.94464Z" fill="#A79080"/>
<path d="M10.7432 8.20068H21.5152C21.6773 8.20068 21.9945 8.41543 21.9945 8.93766V20.0705C21.9945 20.5927 21.6773 20.8074 21.5152 20.8074H10.7432C10.5811 20.8074 10.2639 20.5927 10.2639 20.0705V8.93766C10.2639 8.41543 10.5811 8.20068 10.7432 8.20068Z" fill="#A79080" stroke="#2B2523"/>
<rect x="13.2429" y="12.0303" width="5.77256" height="1.23698" rx="0.618489" fill="#2B2523"/>
<rect x="13.2429" y="14.5043" width="5.77256" height="1.23698" rx="0.618489" fill="#2B2523"/>
<rect x="13.2429" y="16.9783" width="5.77256" height="1.23698" rx="0.618489" fill="#2B2523"/>
</svg>
