<svg width="93" height="93" viewBox="0 0 93 93" fill="none" xmlns="http://www.w3.org/2000/svg">
<path d="M91.45 20.15H82.15V9.3C82.1469 8.88908 81.986 8.49506 81.7005 8.1995L73.9505 0.4495C73.6549 0.163996 73.2609 0.00306014 72.85 0H35.65C35.2391 0.00306014 34.8451 0.163996 34.5495 0.4495L26.7995 8.1995C26.514 8.49506 26.3531 8.88908 26.35 9.3V20.15H17.05C16.6389 20.15 16.2447 20.3133 15.954 20.604C15.6633 20.8947 15.5 21.2889 15.5 21.7V66.65H13.95C13.95 66.2389 13.7867 65.8447 13.496 65.554C13.2053 65.2633 12.8111 65.1 12.4 65.1H1.55C1.13891 65.1 0.744666 65.2633 0.453984 65.554C0.163303 65.8447 0 66.2389 0 66.65V88.35C0 88.7611 0.163303 89.1553 0.453984 89.446C0.744666 89.7367 1.13891 89.9 1.55 89.9H12.4C12.8111 89.9 13.2053 89.7367 13.496 89.446C13.7867 89.1553 13.95 88.7611 13.95 88.35H15.5V91.45C15.5 91.8611 15.6633 92.2553 15.954 92.546C16.2447 92.8367 16.6389 93 17.05 93H91.45C91.8611 93 92.2553 92.8367 92.546 92.546C92.8367 92.2553 93 91.8611 93 91.45V21.7C93 21.2889 92.8367 20.8947 92.546 20.604C92.2553 20.3133 91.8611 20.15 91.45 20.15ZM10.85 86.8H3.1V68.2H10.85V86.8ZM72.2145 3.1L76.8645 7.75H68.8355L64.1855 3.1H72.2145ZM72.85 10.85V20.15H69.75V10.85H72.85ZM36.2855 3.1H59.8145L64.4645 7.75H31.6355L36.2855 3.1ZM66.65 10.85V20.15H63.55V10.85H66.65ZM60.45 10.85V20.15H46.5V10.85H60.45ZM43.4 10.85V20.15H40.3V10.85H43.4ZM37.2 10.85V20.15H35.65V10.85H37.2ZM29.45 10.85H32.55V20.15H29.45V10.85ZM18.6 89.9V88.35H28.8145L30.3645 89.9H18.6ZM55.8 89.9H34.7355L30.5505 85.6995C30.2549 85.414 29.8609 85.2531 29.45 85.25H13.95V69.75H27.9C28.1328 69.7489 28.3624 69.6954 28.5717 69.5935C28.781 69.4915 28.9647 69.3437 29.109 69.161L34.844 62H45.725L48.05 65.1H43.4V68.2H62C62.4111 68.2 62.8053 68.3633 63.096 68.654C63.3867 68.9447 63.55 69.3389 63.55 69.75C63.55 70.1611 63.3867 70.5553 63.096 70.846C62.8053 71.1367 62.4111 71.3 62 71.3H46.5V74.4H65.1C65.5111 74.4 65.9053 74.5633 66.196 74.854C66.4867 75.1447 66.65 75.5389 66.65 75.95C66.65 76.3611 66.4867 76.7553 66.196 77.046C65.9053 77.3367 65.5111 77.5 65.1 77.5H46.5V80.6H60.45C60.8611 80.6 61.2553 80.7633 61.546 81.054C61.8367 81.3447 62 81.7389 62 82.15C62 82.5611 61.8367 82.9553 61.546 83.246C61.2553 83.5367 60.8611 83.7 60.45 83.7H46.5V86.8H55.8C56.2111 86.8 56.6053 86.9633 56.896 87.254C57.1867 87.5447 57.35 87.9389 57.35 88.35C57.35 88.7611 57.1867 89.1553 56.896 89.446C56.6053 89.7367 56.2111 89.9 55.8 89.9ZM77.5 89.9H60.171C60.543 88.9001 60.543 87.7999 60.171 86.8H60.45C61.1953 86.805 61.9307 86.6296 62.5935 86.2887C63.2563 85.9479 63.8267 85.4517 64.2562 84.8426C64.6856 84.2334 64.9613 83.5294 65.0596 82.7906C65.158 82.0519 65.0761 81.3003 64.821 80.6H65.1C66.2271 80.605 67.3174 80.1991 68.1669 79.4582C69.0163 78.7174 69.5666 77.6923 69.7149 76.575C69.8631 75.4576 69.599 74.3246 68.9721 73.3879C68.3452 72.4512 67.3984 71.775 66.309 71.486C66.5952 70.7807 66.7036 70.0159 66.6246 69.2589C66.5456 68.5019 66.2816 67.7759 65.8559 67.145C65.4301 66.5141 64.8558 65.9975 64.1833 65.6409C63.5109 65.2843 62.7611 65.0985 62 65.1H51.925L47.74 59.52C47.5945 59.3287 47.407 59.1734 47.1921 59.0659C46.9771 58.9584 46.7403 58.9017 46.5 58.9H34.1C33.8672 58.9011 33.6376 58.9546 33.4283 59.0565C33.219 59.1585 33.0353 59.3063 32.891 59.489L27.156 66.65H18.6V23.25H77.5V89.9ZM79.05 20.15H75.95V10.85H79.05V20.15ZM80.6 23.25H83.7V81.685L80.6 86.335V23.25ZM81.9485 89.9L85.25 84.94L88.5515 89.9H81.9485ZM89.9 86.335L86.8 81.685V23.25H89.9V86.335Z" fill="#A79080"/>
<path d="M69.7498 48.0501H68.1223C67.7306 43.405 65.6103 39.076 62.1806 35.9189C58.7508 32.7618 54.2613 31.0065 49.5998 31.0001V29.4501H51.1498C51.5609 29.4501 51.9551 29.2868 52.2458 28.9961C52.5365 28.7054 52.6998 28.3112 52.6998 27.9001C52.6998 27.489 52.5365 27.0948 52.2458 26.8041C51.9551 26.5134 51.5609 26.3501 51.1498 26.3501H44.9498C44.5387 26.3501 44.1444 26.5134 43.8538 26.8041C43.5631 27.0948 43.3998 27.489 43.3998 27.9001C43.3998 28.3112 43.5631 28.7054 43.8538 28.9961C44.1444 29.2868 44.5387 29.4501 44.9498 29.4501H46.4998V31.0001C41.8382 31.0065 37.3487 32.7618 33.919 35.9189C30.4893 39.076 28.3689 43.405 27.9773 48.0501H26.3498C25.9387 48.0501 25.5444 48.2134 25.2538 48.5041C24.9631 48.7948 24.7998 49.189 24.7998 49.6001V52.7001C24.8035 53.9322 25.2945 55.1128 26.1658 55.9841C27.037 56.8553 28.2176 57.3464 29.4498 57.3501H66.6498C67.8819 57.3464 69.0625 56.8553 69.9338 55.9841C70.805 55.1128 71.2961 53.9322 71.2998 52.7001V49.6001C71.2998 49.189 71.1365 48.7948 70.8458 48.5041C70.5551 48.2134 70.1609 48.0501 69.7498 48.0501ZM46.4998 34.1001H49.5998C53.4417 34.1021 57.1462 35.5301 59.9954 38.1073C62.8447 40.6846 64.636 44.2276 65.0223 48.0501H31.0773C31.4635 44.2276 33.2548 40.6846 36.1041 38.1073C38.9534 35.5301 42.6578 34.1021 46.4998 34.1001ZM68.1998 52.7001C68.1998 53.1112 68.0365 53.5054 67.7458 53.7961C67.4551 54.0868 67.0609 54.2501 66.6498 54.2501H29.4498C29.0387 54.2501 28.6444 54.0868 28.3538 53.7961C28.0631 53.5054 27.8998 53.1112 27.8998 52.7001V51.1501H68.1998V52.7001Z" fill="#A79080"/>
</svg>
