<svg width="24" height="24" viewBox="0 0 24 24" fill="none" xmlns="http://www.w3.org/2000/svg">
<path d="M21.7406 19.875C20.3412 17.4643 18.1012 15.6549 15.45 14.7938C16.7208 14.0381 17.7083 12.8862 18.2608 11.5148C18.8134 10.1435 18.9005 8.62868 18.5086 7.20309C18.1168 5.7775 17.2677 4.51998 16.0919 3.62373C14.916 2.72748 13.4785 2.24207 12 2.24207C10.5215 2.24207 9.08396 2.72748 7.90812 3.62373C6.73228 4.51998 5.88323 5.7775 5.49138 7.20309C5.09954 8.62868 5.18659 10.1435 5.73915 11.5148C6.29172 12.8862 7.27923 14.0381 8.55 14.7938C5.89884 15.6549 3.65881 17.4643 2.25937 19.875C2.19067 19.9881 2.15433 20.1178 2.15433 20.25C2.15433 20.3823 2.19067 20.512 2.25937 20.625C2.32348 20.74 2.41741 20.8355 2.53126 20.9015C2.64511 20.9675 2.77466 21.0015 2.90625 21H21.0937C21.2253 21.0015 21.3549 20.9675 21.4687 20.9015C21.5826 20.8355 21.6765 20.74 21.7406 20.625C21.8093 20.512 21.8457 20.3823 21.8457 20.25C21.8457 20.1178 21.8093 19.9881 21.7406 19.875Z" fill="#887163"/>
</svg>
