<svg width="27" height="31" viewBox="0 0 27 31" fill="none" xmlns="http://www.w3.org/2000/svg">
<path d="M0 0.466309H1.08V1.66173H0V0.466309ZM1.08 0.466309H2.16V1.66173H1.08V0.466309ZM2.16 0.466309H3.24V1.66173H2.16V0.466309ZM3.24 0.466309H4.32V1.66173H3.24V0.466309ZM4.32 0.466309H5.4V1.66173H4.32V0.466309ZM5.4 0.466309H6.48V1.66173H5.4V0.466309ZM6.48 0.466309H7.56V1.66173H6.48V0.466309ZM11.88 0.466309H12.96V1.66173H11.88V0.466309ZM15.12 0.466309H16.2V1.66173H15.12V0.466309ZM16.2 0.466309H17.28V1.66173H16.2V0.466309ZM17.28 0.466309H18.36V1.66173H17.28V0.466309ZM19.44 0.466309H20.52V1.66173H19.44V0.466309ZM20.52 0.466309H21.6V1.66173H20.52V0.466309ZM21.6 0.466309H22.68V1.66173H21.6V0.466309ZM22.68 0.466309H23.76V1.66173H22.68V0.466309ZM23.76 0.466309H24.84V1.66173H23.76V0.466309ZM24.84 0.466309H25.92V1.66173H24.84V0.466309ZM25.92 0.466309H27V1.66173H25.92V0.466309ZM0 1.66173H1.08V2.85716H0V1.66173ZM6.48 1.66173H7.56V2.85716H6.48V1.66173ZM9.72 1.66173H10.8V2.85716H9.72V1.66173ZM14.04 1.66173H15.12V2.85716H14.04V1.66173ZM15.12 1.66173H16.2V2.85716H15.12V1.66173ZM17.28 1.66173H18.36V2.85716H17.28V1.66173ZM19.44 1.66173H20.52V2.85716H19.44V1.66173ZM25.92 1.66173H27V2.85716H25.92V1.66173ZM0 2.85716H1.08V4.05259H0V2.85716ZM2.16 2.85716H3.24V4.05259H2.16V2.85716ZM3.24 2.85716H4.32V4.05259H3.24V2.85716ZM4.32 2.85716H5.4V4.05259H4.32V2.85716ZM6.48 2.85716H7.56V4.05259H6.48V2.85716ZM9.72 2.85716H10.8V4.05259H9.72V2.85716ZM10.8 2.85716H11.88V4.05259H10.8V2.85716ZM12.96 2.85716H14.04V4.05259H12.96V2.85716ZM15.12 2.85716H16.2V4.05259H15.12V2.85716ZM16.2 2.85716H17.28V4.05259H16.2V2.85716ZM19.44 2.85716H20.52V4.05259H19.44V2.85716ZM21.6 2.85716H22.68V4.05259H21.6V2.85716ZM22.68 2.85716H23.76V4.05259H22.68V2.85716ZM23.76 2.85716H24.84V4.05259H23.76V2.85716ZM25.92 2.85716H27V4.05259H25.92V2.85716ZM0 4.05259H1.08V5.24801H0V4.05259ZM2.16 4.05259H3.24V5.24801H2.16V4.05259ZM3.24 4.05259H4.32V5.24801H3.24V4.05259ZM4.32 4.05259H5.4V5.24801H4.32V4.05259ZM6.48 4.05259H7.56V5.24801H6.48V4.05259ZM8.64 4.05259H9.72V5.24801H8.64V4.05259ZM9.72 4.05259H10.8V5.24801H9.72V4.05259ZM12.96 4.05259H14.04V5.24801H12.96V4.05259ZM15.12 4.05259H16.2V5.24801H15.12V4.05259ZM16.2 4.05259H17.28V5.24801H16.2V4.05259ZM19.44 4.05259H20.52V5.24801H19.44V4.05259ZM21.6 4.05259H22.68V5.24801H21.6V4.05259ZM22.68 4.05259H23.76V5.24801H22.68V4.05259ZM23.76 4.05259H24.84V5.24801H23.76V4.05259ZM25.92 4.05259H27V5.24801H25.92V4.05259ZM0 5.24801H1.08V6.44344H0V5.24801ZM2.16 5.24801H3.24V6.44344H2.16V5.24801ZM3.24 5.24801H4.32V6.44344H3.24V5.24801ZM4.32 5.24801H5.4V6.44344H4.32V5.24801ZM6.48 5.24801H7.56V6.44344H6.48V5.24801ZM10.8 5.24801H11.88V6.44344H10.8V5.24801ZM11.88 5.24801H12.96V6.44344H11.88V5.24801ZM12.96 5.24801H14.04V6.44344H12.96V5.24801ZM14.04 5.24801H15.12V6.44344H14.04V5.24801ZM15.12 5.24801H16.2V6.44344H15.12V5.24801ZM19.44 5.24801H20.52V6.44344H19.44V5.24801ZM21.6 5.24801H22.68V6.44344H21.6V5.24801ZM22.68 5.24801H23.76V6.44344H22.68V5.24801ZM23.76 5.24801H24.84V6.44344H23.76V5.24801ZM25.92 5.24801H27V6.44344H25.92V5.24801ZM0 6.44344H1.08V7.63886H0V6.44344ZM6.48 6.44344H7.56V7.63886H6.48V6.44344ZM8.64 6.44344H9.72V7.63886H8.64V6.44344ZM11.88 6.44344H12.96V7.63886H11.88V6.44344ZM17.28 6.44344H18.36V7.63886H17.28V6.44344ZM19.44 6.44344H20.52V7.63886H19.44V6.44344ZM25.92 6.44344H27V7.63886H25.92V6.44344ZM0 7.63886H1.08V8.83429H0V7.63886ZM1.08 7.63886H2.16V8.83429H1.08V7.63886ZM2.16 7.63886H3.24V8.83429H2.16V7.63886ZM3.24 7.63886H4.32V8.83429H3.24V7.63886ZM4.32 7.63886H5.4V8.83429H4.32V7.63886ZM5.4 7.63886H6.48V8.83429H5.4V7.63886ZM6.48 7.63886H7.56V8.83429H6.48V7.63886ZM8.64 7.63886H9.72V8.83429H8.64V7.63886ZM10.8 7.63886H11.88V8.83429H10.8V7.63886ZM12.96 7.63886H14.04V8.83429H12.96V7.63886ZM15.12 7.63886H16.2V8.83429H15.12V7.63886ZM17.28 7.63886H18.36V8.83429H17.28V7.63886ZM19.44 7.63886H20.52V8.83429H19.44V7.63886ZM20.52 7.63886H21.6V8.83429H20.52V7.63886ZM21.6 7.63886H22.68V8.83429H21.6V7.63886ZM22.68 7.63886H23.76V8.83429H22.68V7.63886ZM23.76 7.63886H24.84V8.83429H23.76V7.63886ZM24.84 7.63886H25.92V8.83429H24.84V7.63886ZM25.92 7.63886H27V8.83429H25.92V7.63886ZM8.64 8.83429H9.72V10.0297H8.64V8.83429ZM9.72 8.83429H10.8V10.0297H9.72V8.83429ZM10.8 8.83429H11.88V10.0297H10.8V8.83429ZM15.12 8.83429H16.2V10.0297H15.12V8.83429ZM16.2 8.83429H17.28V10.0297H16.2V8.83429ZM17.28 8.83429H18.36V10.0297H17.28V8.83429ZM1.08 10.0297H2.16V11.2251H1.08V10.0297ZM2.16 10.0297H3.24V11.2251H2.16V10.0297ZM6.48 10.0297H7.56V11.2251H6.48V10.0297ZM14.04 10.0297H15.12V11.2251H14.04V10.0297ZM15.12 10.0297H16.2V11.2251H15.12V10.0297ZM17.28 10.0297H18.36V11.2251H17.28V10.0297ZM19.44 10.0297H20.52V11.2251H19.44V10.0297ZM20.52 10.0297H21.6V11.2251H20.52V10.0297ZM22.68 10.0297H23.76V11.2251H22.68V10.0297ZM1.08 11.2251H2.16V12.4206H1.08V11.2251ZM2.16 11.2251H3.24V12.4206H2.16V11.2251ZM4.32 11.2251H5.4V12.4206H4.32V11.2251ZM7.56 11.2251H8.64V12.4206H7.56V11.2251ZM10.8 11.2251H11.88V12.4206H10.8V11.2251ZM11.88 11.2251H12.96V12.4206H11.88V11.2251ZM12.96 11.2251H14.04V12.4206H12.96V11.2251ZM14.04 11.2251H15.12V12.4206H14.04V11.2251ZM15.12 11.2251H16.2V12.4206H15.12V11.2251ZM16.2 11.2251H17.28V12.4206H16.2V11.2251ZM17.28 11.2251H18.36V12.4206H17.28V11.2251ZM19.44 11.2251H20.52V12.4206H19.44V11.2251ZM20.52 11.2251H21.6V12.4206H20.52V11.2251ZM22.68 11.2251H23.76V12.4206H22.68V11.2251ZM24.84 11.2251H25.92V12.4206H24.84V11.2251ZM25.92 11.2251H27V12.4206H25.92V11.2251ZM6.48 12.4206H7.56V13.616H6.48V12.4206ZM11.88 12.4206H12.96V13.616H11.88V12.4206ZM16.2 12.4206H17.28V13.616H16.2V12.4206ZM18.36 12.4206H19.44V13.616H18.36V12.4206ZM20.52 12.4206H21.6V13.616H20.52V12.4206ZM22.68 12.4206H23.76V13.616H22.68V12.4206ZM23.76 12.4206H24.84V13.616H23.76V12.4206ZM25.92 12.4206H27V13.616H25.92V12.4206ZM0 13.616H1.08V14.8114H0V13.616ZM1.08 13.616H2.16V14.8114H1.08V13.616ZM4.32 13.616H5.4V14.8114H4.32V13.616ZM7.56 13.616H8.64V14.8114H7.56V13.616ZM9.72 13.616H10.8V14.8114H9.72V13.616ZM10.8 13.616H11.88V14.8114H10.8V13.616ZM14.04 13.616H15.12V14.8114H14.04V13.616ZM16.2 13.616H17.28V14.8114H16.2V13.616ZM18.36 13.616H19.44V14.8114H18.36V13.616ZM20.52 13.616H21.6V14.8114H20.52V13.616ZM22.68 13.616H23.76V14.8114H22.68V13.616ZM0 14.8114H1.08V16.0068H0V14.8114ZM1.08 14.8114H2.16V16.0068H1.08V14.8114ZM3.24 14.8114H4.32V16.0068H3.24V14.8114ZM6.48 14.8114H7.56V16.0068H6.48V14.8114ZM7.56 14.8114H8.64V16.0068H7.56V14.8114ZM8.64 14.8114H9.72V16.0068H8.64V14.8114ZM9.72 14.8114H10.8V16.0068H9.72V14.8114ZM10.8 14.8114H11.88V16.0068H10.8V14.8114ZM14.04 14.8114H15.12V16.0068H14.04V14.8114ZM16.2 14.8114H17.28V16.0068H16.2V14.8114ZM17.28 14.8114H18.36V16.0068H17.28V14.8114ZM19.44 14.8114H20.52V16.0068H19.44V14.8114ZM20.52 14.8114H21.6V16.0068H20.52V14.8114ZM25.92 14.8114H27V16.0068H25.92V14.8114ZM2.16 16.0068H3.24V17.2023H2.16V16.0068ZM3.24 16.0068H4.32V17.2023H3.24V16.0068ZM4.32 16.0068H5.4V17.2023H4.32V16.0068ZM10.8 16.0068H11.88V17.2023H10.8V16.0068ZM11.88 16.0068H12.96V17.2023H11.88V16.0068ZM12.96 16.0068H14.04V17.2023H12.96V16.0068ZM16.2 16.0068H17.28V17.2023H16.2V16.0068ZM17.28 16.0068H18.36V17.2023H17.28V16.0068ZM19.44 16.0068H20.52V17.2023H19.44V16.0068ZM20.52 16.0068H21.6V17.2023H20.52V16.0068ZM24.84 16.0068H25.92V17.2023H24.84V16.0068ZM25.92 16.0068H27V17.2023H25.92V16.0068ZM0 17.2023H1.08V18.3977H0V17.2023ZM1.08 17.2023H2.16V18.3977H1.08V17.2023ZM3.24 17.2023H4.32V18.3977H3.24V17.2023ZM5.4 17.2023H6.48V18.3977H5.4V17.2023ZM6.48 17.2023H7.56V18.3977H6.48V17.2023ZM8.64 17.2023H9.72V18.3977H8.64V17.2023ZM9.72 17.2023H10.8V18.3977H9.72V17.2023ZM10.8 17.2023H11.88V18.3977H10.8V17.2023ZM12.96 17.2023H14.04V18.3977H12.96V17.2023ZM16.2 17.2023H17.28V18.3977H16.2V17.2023ZM17.28 17.2023H18.36V18.3977H17.28V17.2023ZM19.44 17.2023H20.52V18.3977H19.44V17.2023ZM22.68 17.2023H23.76V18.3977H22.68V17.2023ZM23.76 17.2023H24.84V18.3977H23.76V17.2023ZM25.92 17.2023H27V18.3977H25.92V17.2023ZM2.16 18.3977H3.24V19.5931H2.16V18.3977ZM3.24 18.3977H4.32V19.5931H3.24V18.3977ZM4.32 18.3977H5.4V19.5931H4.32V18.3977ZM7.56 18.3977H8.64V19.5931H7.56V18.3977ZM10.8 18.3977H11.88V19.5931H10.8V18.3977ZM15.12 18.3977H16.2V19.5931H15.12V18.3977ZM16.2 18.3977H17.28V19.5931H16.2V18.3977ZM17.28 18.3977H18.36V19.5931H17.28V18.3977ZM18.36 18.3977H19.44V19.5931H18.36V18.3977ZM19.44 18.3977H20.52V19.5931H19.44V18.3977ZM20.52 18.3977H21.6V19.5931H20.52V18.3977ZM21.6 18.3977H22.68V19.5931H21.6V18.3977ZM22.68 18.3977H23.76V19.5931H22.68V18.3977ZM0 19.5931H1.08V20.7886H0V19.5931ZM1.08 19.5931H2.16V20.7886H1.08V19.5931ZM2.16 19.5931H3.24V20.7886H2.16V19.5931ZM4.32 19.5931H5.4V20.7886H4.32V19.5931ZM6.48 19.5931H7.56V20.7886H6.48V19.5931ZM8.64 19.5931H9.72V20.7886H8.64V19.5931ZM11.88 19.5931H12.96V20.7886H11.88V19.5931ZM17.28 19.5931H18.36V20.7886H17.28V19.5931ZM18.36 19.5931H19.44V20.7886H18.36V19.5931ZM19.44 19.5931H20.52V20.7886H19.44V19.5931ZM20.52 19.5931H21.6V20.7886H20.52V19.5931ZM21.6 19.5931H22.68V20.7886H21.6V19.5931ZM24.84 19.5931H25.92V20.7886H24.84V19.5931ZM8.64 20.7886H9.72V21.984H8.64V20.7886ZM9.72 20.7886H10.8V21.984H9.72V20.7886ZM10.8 20.7886H11.88V21.984H10.8V20.7886ZM11.88 20.7886H12.96V21.984H11.88V20.7886ZM14.04 20.7886H15.12V21.984H14.04V20.7886ZM15.12 20.7886H16.2V21.984H15.12V20.7886ZM17.28 20.7886H18.36V21.984H17.28V20.7886ZM21.6 20.7886H22.68V21.984H21.6V20.7886ZM25.92 20.7886H27V21.984H25.92V20.7886ZM0 21.984H1.08V23.1794H0V21.984ZM1.08 21.984H2.16V23.1794H1.08V21.984ZM2.16 21.984H3.24V23.1794H2.16V21.984ZM3.24 21.984H4.32V23.1794H3.24V21.984ZM4.32 21.984H5.4V23.1794H4.32V21.984ZM5.4 21.984H6.48V23.1794H5.4V21.984ZM6.48 21.984H7.56V23.1794H6.48V21.984ZM10.8 21.984H11.88V23.1794H10.8V21.984ZM11.88 21.984H12.96V23.1794H11.88V21.984ZM15.12 21.984H16.2V23.1794H15.12V21.984ZM17.28 21.984H18.36V23.1794H17.28V21.984ZM19.44 21.984H20.52V23.1794H19.44V21.984ZM21.6 21.984H22.68V23.1794H21.6V21.984ZM25.92 21.984H27V23.1794H25.92V21.984ZM0 23.1794H1.08V24.3748H0V23.1794ZM6.48 23.1794H7.56V24.3748H6.48V23.1794ZM9.72 23.1794H10.8V24.3748H9.72V23.1794ZM10.8 23.1794H11.88V24.3748H10.8V23.1794ZM12.96 23.1794H14.04V24.3748H12.96V23.1794ZM14.04 23.1794H15.12V24.3748H14.04V23.1794ZM17.28 23.1794H18.36V24.3748H17.28V23.1794ZM21.6 23.1794H22.68V24.3748H21.6V23.1794ZM24.84 23.1794H25.92V24.3748H24.84V23.1794ZM0 24.3748H1.08V25.5703H0V24.3748ZM2.16 24.3748H3.24V25.5703H2.16V24.3748ZM3.24 24.3748H4.32V25.5703H3.24V24.3748ZM4.32 24.3748H5.4V25.5703H4.32V24.3748ZM6.48 24.3748H7.56V25.5703H6.48V24.3748ZM9.72 24.3748H10.8V25.5703H9.72V24.3748ZM10.8 24.3748H11.88V25.5703H10.8V24.3748ZM15.12 24.3748H16.2V25.5703H15.12V24.3748ZM16.2 24.3748H17.28V25.5703H16.2V24.3748ZM17.28 24.3748H18.36V25.5703H17.28V24.3748ZM18.36 24.3748H19.44V25.5703H18.36V24.3748ZM19.44 24.3748H20.52V25.5703H19.44V24.3748ZM20.52 24.3748H21.6V25.5703H20.52V24.3748ZM21.6 24.3748H22.68V25.5703H21.6V24.3748ZM24.84 24.3748H25.92V25.5703H24.84V24.3748ZM25.92 24.3748H27V25.5703H25.92V24.3748ZM0 25.5703H1.08V26.7657H0V25.5703ZM2.16 25.5703H3.24V26.7657H2.16V25.5703ZM3.24 25.5703H4.32V26.7657H3.24V25.5703ZM4.32 25.5703H5.4V26.7657H4.32V25.5703ZM6.48 25.5703H7.56V26.7657H6.48V25.5703ZM9.72 25.5703H10.8V26.7657H9.72V25.5703ZM10.8 25.5703H11.88V26.7657H10.8V25.5703ZM11.88 25.5703H12.96V26.7657H11.88V25.5703ZM12.96 25.5703H14.04V26.7657H12.96V25.5703ZM16.2 25.5703H17.28V26.7657H16.2V25.5703ZM18.36 25.5703H19.44V26.7657H18.36V25.5703ZM21.6 25.5703H22.68V26.7657H21.6V25.5703ZM23.76 25.5703H24.84V26.7657H23.76V25.5703ZM24.84 25.5703H25.92V26.7657H24.84V25.5703ZM0 26.7657H1.08V27.9611H0V26.7657ZM2.16 26.7657H3.24V27.9611H2.16V26.7657ZM3.24 26.7657H4.32V27.9611H3.24V26.7657ZM4.32 26.7657H5.4V27.9611H4.32V26.7657ZM6.48 26.7657H7.56V27.9611H6.48V26.7657ZM8.64 26.7657H9.72V27.9611H8.64V26.7657ZM14.04 26.7657H15.12V27.9611H14.04V26.7657ZM15.12 26.7657H16.2V27.9611H15.12V26.7657ZM16.2 26.7657H17.28V27.9611H16.2V26.7657ZM17.28 26.7657H18.36V27.9611H17.28V26.7657ZM18.36 26.7657H19.44V27.9611H18.36V26.7657ZM20.52 26.7657H21.6V27.9611H20.52V26.7657ZM21.6 26.7657H22.68V27.9611H21.6V26.7657ZM22.68 26.7657H23.76V27.9611H22.68V26.7657ZM24.84 26.7657H25.92V27.9611H24.84V26.7657ZM25.92 26.7657H27V27.9611H25.92V26.7657ZM0 27.9611H1.08V29.1565H0V27.9611ZM6.48 27.9611H7.56V29.1565H6.48V27.9611ZM8.64 27.9611H9.72V29.1565H8.64V27.9611ZM9.72 27.9611H10.8V29.1565H9.72V27.9611ZM10.8 27.9611H11.88V29.1565H10.8V27.9611ZM14.04 27.9611H15.12V29.1565H14.04V27.9611ZM17.28 27.9611H18.36V29.1565H17.28V27.9611ZM18.36 27.9611H19.44V29.1565H18.36V27.9611ZM19.44 27.9611H20.52V29.1565H19.44V27.9611ZM20.52 27.9611H21.6V29.1565H20.52V27.9611ZM21.6 27.9611H22.68V29.1565H21.6V27.9611ZM0 29.1565H1.08V30.352H0V29.1565ZM1.08 29.1565H2.16V30.352H1.08V29.1565ZM2.16 29.1565H3.24V30.352H2.16V29.1565ZM3.24 29.1565H4.32V30.352H3.24V29.1565ZM4.32 29.1565H5.4V30.352H4.32V29.1565ZM5.4 29.1565H6.48V30.352H5.4V29.1565ZM6.48 29.1565H7.56V30.352H6.48V29.1565ZM10.8 29.1565H11.88V30.352H10.8V29.1565ZM12.96 29.1565H14.04V30.352H12.96V29.1565ZM17.28 29.1565H18.36V30.352H17.28V29.1565ZM19.44 29.1565H20.52V30.352H19.44V29.1565ZM22.68 29.1565H23.76V30.352H22.68V29.1565ZM25.92 29.1565H27V30.352H25.92V29.1565Z" fill="#D9D9D9"/>
</svg>
