<svg width="24" height="25" viewBox="0 0 24 25" fill="none" xmlns="http://www.w3.org/2000/svg">
<path d="M16.9281 4.94464L16.0057 10.0027C15.9296 10.4205 15.7094 10.7984 15.3834 11.0706C15.0573 11.3427 14.6461 11.4919 14.2214 11.4921H5.45118L5.78384 13.3066H13.9115C14.2703 13.3066 14.6212 13.4131 14.9196 13.6124C15.218 13.8118 15.4505 14.0952 15.5879 14.4268C15.7252 14.7583 15.7611 15.1232 15.6911 15.4752C15.6211 15.8272 15.4483 16.1505 15.1945 16.4042C14.9408 16.658 14.6174 16.8308 14.2655 16.9008C13.9135 16.9709 13.5486 16.9349 13.2171 16.7976C12.8855 16.6602 12.6021 16.4277 12.4027 16.1293C12.2033 15.8309 12.0969 15.4801 12.0969 15.1212C12.097 14.915 12.1328 14.7103 12.2028 14.5163H7.75715C7.82712 14.7103 7.86293 14.915 7.863 15.1212C7.86354 15.4139 7.79324 15.7025 7.6581 15.9622C7.52295 16.2219 7.32697 16.445 7.08689 16.6126C6.84681 16.7801 6.56975 16.8871 6.27937 16.9243C5.98899 16.9616 5.6939 16.928 5.4193 16.8265C5.1447 16.725 4.89874 16.5586 4.70241 16.3414C4.50608 16.1242 4.36522 15.8628 4.29184 15.5793C4.21847 15.2959 4.21476 14.999 4.28103 14.7138C4.34731 14.4286 4.48159 14.1637 4.67244 13.9417L2.57816 2.41941H1.20969C1.04928 2.41941 0.895433 2.35568 0.782002 2.24225C0.668572 2.12882 0.604847 1.97498 0.604847 1.81456C0.604847 1.65415 0.668572 1.5003 0.782002 1.38687C0.895433 1.27344 1.04928 1.20972 1.20969 1.20972H2.57816C2.8605 1.21033 3.13373 1.30969 3.35052 1.49058C3.56731 1.67147 3.71399 1.92249 3.76517 2.20015L4.13564 4.23395H16.3308C16.4191 4.23413 16.5063 4.25389 16.5861 4.2918C16.6658 4.32971 16.7362 4.38484 16.792 4.4532C16.8505 4.51942 16.8932 4.59808 16.9168 4.68323C16.9403 4.76837 16.9442 4.85777 16.9281 4.94464Z" fill="#DDD7D0"/>
<path d="M10.7432 8.20068H21.5152C21.6773 8.20068 21.9945 8.41543 21.9945 8.93766V20.0705C21.9945 20.5927 21.6773 20.8074 21.5152 20.8074H10.7432C10.581 20.8074 10.2639 20.5927 10.2639 20.0705V8.93766C10.2639 8.41543 10.581 8.20068 10.7432 8.20068Z" fill="#DDD7D0" stroke="#2B2523"/>
<rect x="13.2429" y="12.0303" width="5.77256" height="1.23698" rx="0.618489" fill="#2B2523"/>
<rect x="13.2429" y="14.5043" width="5.77256" height="1.23698" rx="0.618489" fill="#2B2523"/>
<rect x="13.2429" y="16.9783" width="5.77256" height="1.23698" rx="0.618489" fill="#2B2523"/>
</svg>
