<svg width="28" height="28" viewBox="0 0 28 28" fill="none" xmlns="http://www.w3.org/2000/svg">
<path fill-rule="evenodd" clip-rule="evenodd" d="M5.25 14.3936C5.73325 14.3936 6.125 14.7853 6.125 15.2686V22.7498H21.875V15.2686C21.875 14.7853 22.2668 14.3936 22.75 14.3936C23.2332 14.3936 23.625 14.7853 23.625 15.2686V22.7498C23.625 23.2139 23.4406 23.6591 23.1124 23.9872C22.7842 24.3154 22.3391 24.4998 21.875 24.4998H6.125C5.66087 24.4998 5.21575 24.3154 4.88756 23.9872C4.55937 23.6591 4.375 23.2139 4.375 22.7498V15.2686C4.375 14.7853 4.76675 14.3936 5.25 14.3936Z" fill="#A79080"/>
<path fill-rule="evenodd" clip-rule="evenodd" d="M5.89699 3.50005C5.90007 3.50002 5.90316 3.5 5.90625 3.5H22.101C22.4782 3.50311 22.8446 3.62734 23.1459 3.85435C23.4473 4.08136 23.6678 4.39917 23.7749 4.76095L23.7775 4.76965L25.3415 10.2603C25.4167 10.5242 25.3637 10.8082 25.1983 11.0272C25.033 11.2462 24.7744 11.375 24.5 11.375H3.5C3.22555 11.375 2.96701 11.2462 2.80165 11.0272C2.6363 10.8082 2.58329 10.5242 2.65848 10.2603L4.22502 4.76093C4.33215 4.39916 4.55268 4.08136 4.85406 3.85435C5.15489 3.62775 5.52042 3.50359 5.89699 3.50005ZM5.91273 5.25C5.91249 5.25 5.91297 5.24998 5.91273 5.25L5.89905 3.50003C5.89836 3.50004 5.89768 3.50004 5.89699 3.50005M5.91273 5.25H5.90625C5.90594 5.25 5.90563 5.25 5.90533 5.25L5.90559 5.24909L5.44262 5.11721C5.44706 5.11999 5.45153 5.12273 5.45603 5.12544M5.87484 5.24945C5.88496 5.2498 5.89512 5.24999 5.90533 5.25L5.90335 5.25694C5.90324 5.25723 5.90314 5.25751 5.90306 5.2578L5.87484 5.24945ZM4.65906 9.625H3.5V10.5L4.34152 10.7397L4.65906 9.625ZM23.3409 9.625L23.6585 10.7397L24.5 10.5V9.625H23.3409ZM22.0967 5.25694L22.0944 5.24909L22.9359 5.00937L22.0969 5.2578C22.0969 5.25751 22.0968 5.25722 22.0967 5.25694ZM22.0865 5.24997C22.0863 5.24995 22.0868 5.24997 22.0865 5.24997L22.0938 4.375V5.25L22.0865 5.24997Z" fill="#A79080"/>
<path fill-rule="evenodd" clip-rule="evenodd" d="M3.5 9.625C3.98325 9.625 4.375 10.0168 4.375 10.5V12.25C4.375 12.9462 4.65156 13.6139 5.14384 14.1062C5.63613 14.5984 6.30381 14.875 7 14.875C7.69619 14.875 8.36387 14.5984 8.85616 14.1062C9.34844 13.6139 9.625 12.9462 9.625 12.25V10.5C9.625 10.0168 10.0168 9.625 10.5 9.625C10.9832 9.625 11.375 10.0168 11.375 10.5V12.25C11.375 13.4103 10.9141 14.5231 10.0936 15.3436C9.27312 16.1641 8.16032 16.625 7 16.625C5.83968 16.625 4.72688 16.1641 3.90641 15.3436C3.08594 14.5231 2.625 13.4103 2.625 12.25V10.5C2.625 10.0168 3.01675 9.625 3.5 9.625Z" fill="#A79080"/>
<path fill-rule="evenodd" clip-rule="evenodd" d="M10.5 9.625C10.9832 9.625 11.375 10.0168 11.375 10.5V12.25C11.375 12.9462 11.6516 13.6139 12.1438 14.1062C12.6361 14.5984 13.3038 14.875 14 14.875C14.6962 14.875 15.3639 14.5984 15.8562 14.1062C16.3484 13.6139 16.625 12.9462 16.625 12.25V10.5C16.625 10.0168 17.0168 9.625 17.5 9.625C17.9832 9.625 18.375 10.0168 18.375 10.5V12.25C18.375 13.4103 17.9141 14.5231 17.0936 15.3436C16.2731 16.1641 15.1603 16.625 14 16.625C12.8397 16.625 11.7269 16.1641 10.9064 15.3436C10.0859 14.5231 9.625 13.4103 9.625 12.25V10.5C9.625 10.0168 10.0168 9.625 10.5 9.625Z" fill="#A79080"/>
<path fill-rule="evenodd" clip-rule="evenodd" d="M17.5 9.625C17.9832 9.625 18.375 10.0168 18.375 10.5V12.25C18.375 12.9462 18.6516 13.6139 19.1438 14.1062C19.6361 14.5984 20.3038 14.875 21 14.875C21.6962 14.875 22.3639 14.5984 22.8562 14.1062C23.3484 13.6139 23.625 12.9462 23.625 12.25V10.5C23.625 10.0168 24.0168 9.625 24.5 9.625C24.9832 9.625 25.375 10.0168 25.375 10.5V12.25C25.375 13.4103 24.9141 14.5231 24.0936 15.3436C23.2731 16.1641 22.1603 16.625 21 16.625C19.8397 16.625 18.7269 16.1641 17.9064 15.3436C17.0859 14.5231 16.625 13.4103 16.625 12.25V10.5C16.625 10.0168 17.0168 9.625 17.5 9.625Z" fill="#A79080"/>
</svg>
